<svg id="Calque_1" data-name="Calque 1" xmlns="http://www.w3.org/2000/svg" viewBox="0 0 141 134"><defs><style>.cls-1{fill:#347857;}.cls-2{fill:#68efad;stroke:#68efad;stroke-miterlimit:10;stroke-width:0.44px;}.cls-3{fill:#fff;}</style></defs><title>P_01</title><path class="cls-1" d="M89.89,108.84c.62,2.62,3,4.35,5.07,6.08s4.08,4.18,3.52,6.81a1.85,1.85,0,0,1-.57,1.08,2.28,2.28,0,0,1-1.61.32,28.93,28.93,0,0,1-21-11.25l-1.76-1.68c-21-14.1,2.44-56.63,7-74.87A21.49,21.49,0,0,1,85,26.4c2.21-2.56,4.72-4.93,6.31-7.91,1.19-2.24,1.82-4.74,3-7a.89.89,0,0,1,.38-.44.86.86,0,0,1,.81.22C98,13.21,98.26,17,97.37,20.11s-2.66,5.86-3.4,9a22.83,22.83,0,0,0,.12,9.28Z"/><path class="cls-1" d="M87.32,109.54A15,15,0,0,0,92,115.93c.54.48,4.64,4.19,4.28,4.54-.58.56-4.35-.67-5.33-1-7.08-2.06-10.3-6.74-15.55-11.19-8.84-7.48-8.73-17.74-6.5-28.5C71.24,68.64,75.53,58,79.44,47.29c1.69-4.63,2.82-9.54,4.62-14.11,1.63-4.12,4.81-6.85,7.45-10.27,2.23-2.89,2.76-7.36,5-10l-2.59.68c4.08,1.13-1.41,11.14-2.09,13.22-1.14,3.49-.93,6.78-.62,10.38a33.55,33.55,0,0,1,0,5l-1.43,24-2.54,42.66c-.2,3.42,5.12,3.41,5.32,0L94.5,76.09c.73-12.36,2.16-24.89,2.22-37.27,0-1.71-.48-3.39-.49-5.11,0-4.56,2.11-8,3.45-12.14,1.43-4.46,1.12-11.58-4.33-13.08a2.63,2.63,0,0,0-2.59.68c-1.68,1.94-2.24,4.61-3.31,6.9-1.9,4-5.33,6.7-7.82,10.31-3,4.36-3.89,9.65-5.57,14.58-3.58,10.49-7.92,20.72-10.81,31.44-2.5,9.29-4.66,20.12-1.27,29.48a23.14,23.14,0,0,0,7.41,10c4.29,3.64,7.38,7.89,12.57,10.5,3.71,1.86,12.91,6,16.27,1.74,5.16-6.47-6.09-11.39-7.76-16C91.3,104.93,86.16,106.31,87.32,109.54Z"/><path class="cls-2" d="M111.46,76.11a41.15,41.15,0,1,1-82.3,0c0-22.73,18.42-54.86,41.15-54.86S111.46,53.38,111.46,76.11Z"/><circle class="cls-3" cx="36.02" cy="65.82" r="13.72"/><circle class="cls-3" cx="104.6" cy="66.2" r="13.72"/><circle cx="41.17" cy="70.31" r="5.14"/><circle cx="99.46" cy="70.31" r="5.14"/><path class="cls-1" d="M27.22,86.48S-3.39,95.89,8.38,105.31,31.93,100.6,27.22,86.48Z"/><path class="cls-1" d="M26.51,83.91a77.48,77.48,0,0,0-12.7,5.19C9.35,91.42,2.74,95.29,3,101.15c.4,7.77,11.5,11.44,17.74,9,9.41-3.74,11.64-15.6,9-24.34-1-3.27-6.13-1.88-5.13,1.42,1.91,6.33.67,17.78-7.92,18.5C13,106,6,102.57,9.6,98.45c4.3-4.91,12.24-7.52,18.32-9.41C31.19,88,29.79,82.89,26.51,83.91Z"/><path class="cls-1" d="M113.68,86.48s30.61,9.42,18.84,18.84S109,100.6,113.68,86.48Z"/><path class="cls-1" d="M113,89C119,90.92,127,93.54,131.3,98.45c3.58,4.12-3.4,7.54-7.13,7.23-8.58-.72-9.83-12.17-7.92-18.5,1-3.29-4.14-4.69-5.13-1.42-2.64,8.74-.41,20.59,9,24.34,6.23,2.48,17.33-1.19,17.74-9,.31-5.86-6.31-9.73-10.76-12a77.47,77.47,0,0,0-12.7-5.19C111.11,82.89,109.7,88,113,89Z"/><circle class="cls-1" cx="83.22" cy="105.71" r="5.1" transform="translate(-39.59 160.66) rotate(-75.89)"/><circle class="cls-1" cx="94.47" cy="101.91" r="2.66" transform="translate(-27.39 168.69) rotate(-75.89)"/><circle class="cls-1" cx="96.53" cy="90.08" r="2.66" transform="translate(-14.36 161.74) rotate(-75.89)"/><circle class="cls-1" cx="85.22" cy="96.84" r="2.66" transform="translate(-29.47 155.89) rotate(-75.89)"/><ellipse class="cls-3" cx="70.11" cy="75.56" rx="8.32" ry="12.91"/><path class="cls-1" d="M74.44,75.56c-.09,2.27-.82,8.92-4.33,8.92s-4.33-6.75-4.33-8.92.9-8.92,4.33-8.92,4.24,6.62,4.33,8.92c.21,5.12,8.19,5.15,8,0-.28-7.07-3.69-16.91-12.32-16.91-8.43,0-12.32,9.82-12.32,16.91S61.45,92,69.59,92.41c8.92.44,12.55-9.57,12.84-16.86C82.63,70.42,74.65,70.43,74.44,75.56Z"/></svg>