<svg id="Calque_1" data-name="Calque 1" xmlns="http://www.w3.org/2000/svg" viewBox="0 0 141 134"><defs><style>.cls-1{fill:#c079e7;}.cls-2{fill:#d9aff1;stroke:#d9aff1;stroke-miterlimit:10;stroke-width:0.44px;}.cls-3{fill:#fff;}.cls-4{fill:#3d2563;}</style></defs><title>P_08</title><path class="cls-1" d="M89.72,108.67c.62,2.62,3,4.35,5.07,6.08s4.08,4.18,3.52,6.81a1.85,1.85,0,0,1-.57,1.08,2.28,2.28,0,0,1-1.61.32,28.93,28.93,0,0,1-21-11.25L73.38,110c-21-14.1,2.44-56.63,7-74.87a21.49,21.49,0,0,1,4.4-8.94c2.21-2.56,4.72-4.93,6.31-7.91,1.19-2.24,1.82-4.74,3-7a.89.89,0,0,1,.38-.44.86.86,0,0,1,.81.22c2.56,1.93,2.81,5.75,1.92,8.83s-2.66,5.86-3.4,9a22.83,22.83,0,0,0,.12,9.28Z"/><path class="cls-1" d="M87.16,109.38a15,15,0,0,0,4.71,6.38c.54.48,4.64,4.19,4.28,4.54-.58.56-4.35-.67-5.33-1-7.08-2.06-10.3-6.74-15.55-11.19-8.84-7.48-8.73-17.74-6.5-28.5,2.31-11.19,6.6-21.84,10.51-32.54C81,42.49,82.08,37.58,83.89,33c1.63-4.12,4.81-6.85,7.45-10.27,2.23-2.89,2.76-7.36,5-10l-2.59.68c4.08,1.13-1.41,11.14-2.09,13.22-1.14,3.49-.93,6.78-.62,10.38a33.55,33.55,0,0,1,0,5L89.6,66l-2.54,42.66c-.2,3.42,5.12,3.41,5.32,0l1.95-32.74c.73-12.36,2.16-24.89,2.22-37.27,0-1.71-.48-3.39-.49-5.11,0-4.56,2.11-8,3.45-12.14,1.43-4.46,1.12-11.58-4.33-13.08A2.63,2.63,0,0,0,92.59,9c-1.68,1.94-2.24,4.61-3.31,6.9-1.9,4-5.33,6.7-7.82,10.31-3,4.36-3.89,9.65-5.57,14.58C72.3,51.29,68,61.52,65.07,72.24c-2.5,9.29-4.66,20.12-1.27,29.48a23.14,23.14,0,0,0,7.41,10c4.29,3.64,7.38,7.89,12.57,10.5,3.71,1.86,12.91,6,16.27,1.74,5.16-6.47-6.09-11.39-7.76-16C91.13,104.76,86,106.14,87.16,109.38Z"/><path class="cls-2" d="M111.29,75.94a41.15,41.15,0,0,1-82.3,0c0-22.73,18.42-54.86,41.15-54.86S111.29,53.21,111.29,75.94Z"/><circle class="cls-3" cx="35.86" cy="65.65" r="13.72"/><circle class="cls-3" cx="104.44" cy="66.03" r="13.72"/><path class="cls-1" d="M27,86.31S-3.56,95.73,8.21,105.14,31.76,100.43,27,86.31Z"/><path class="cls-1" d="M26.34,83.74a77.48,77.48,0,0,0-12.7,5.19C9.18,91.25,2.57,95.12,2.88,101c.4,7.77,11.5,11.44,17.74,9,9.41-3.74,11.64-15.6,9-24.34-1-3.27-6.13-1.88-5.13,1.42,1.91,6.33.67,17.78-7.92,18.5-3.71.31-10.74-3.12-7.13-7.23,4.3-4.91,12.24-7.52,18.32-9.41C31,87.86,29.62,82.72,26.34,83.74Z"/><path class="cls-1" d="M113.07,86.31s30.61,9.42,18.84,18.84S108.36,100.43,113.07,86.31Z"/><path class="cls-1" d="M112.36,88.87c6.07,1.88,14.05,4.49,18.32,9.41,3.58,4.12-3.4,7.54-7.13,7.23-8.58-.72-9.83-12.17-7.92-18.5,1-3.29-4.14-4.69-5.13-1.42-2.64,8.74-.41,20.59,9,24.34,6.23,2.48,17.33-1.19,17.74-9,.31-5.86-6.31-9.73-10.76-12a77.47,77.47,0,0,0-12.7-5.19C110.49,82.72,109.09,87.86,112.36,88.87Z"/><circle class="cls-4" cx="70.13" cy="32.8" r="5.1" transform="translate(0.66 66.98) rotate(-51.26)"/><circle class="cls-4" cx="57.88" cy="32.46" r="2.66" transform="translate(-3.66 57.3) rotate(-51.26)"/><circle class="cls-4" cx="51.08" cy="42.36" r="2.66" transform="translate(-13.92 55.7) rotate(-51.26)"/><circle class="cls-4" cx="64.17" cy="40.92" r="2.66" transform="translate(-7.9 65.37) rotate(-51.26)"/><circle cx="32.21" cy="62.84" r="4.91"/><circle cx="100.52" cy="62.39" r="4.91"/><path class="cls-3" d="M70.14,84.85c4.09,0,13.27-6.36,13.27-12.9s-26.17-6.54-26.17,0S66,84.85,70.14,84.85Z"/><path class="cls-4" d="M70.14,88.84c7.77-.65,19.26-9.54,17.07-18.42-1.63-6.62-11.46-7.37-16.89-7.37s-15.2.75-16.89,7.37c-2.23,8.76,9,17.77,16.71,18.42,5.12.43,5.09-7.55,0-8-2.22-.19-4.63-2.23-6.09-3.72a16.63,16.63,0,0,1-2.62-4c-.66-1.17.52-1.22-.3-.51,2-1.77,6.72-1.63,9.19-1.63s7.29-.19,9.19,1.63c-.59-.57,1-1.75-.31.51a18.57,18.57,0,0,1-2.29,3.51c-1.57,1.71-4.35,4-6.77,4.18C65.05,81.28,65,89.27,70.14,88.84Z"/></svg>