<svg id="Calque_1" data-name="Calque 1" xmlns="http://www.w3.org/2000/svg" viewBox="0 0 141 134"><defs><style>.cls-1{fill:#5e5f60;}.cls-2{fill:#bbbdbf;stroke:#bbbdbf;stroke-miterlimit:10;stroke-width:0.44px;}.cls-3{fill:#fff;}</style></defs><title>P_09</title><path class="cls-1" d="M90.42,108.46c.62,2.62,3,4.35,5.07,6.08s4.08,4.18,3.52,6.81a1.85,1.85,0,0,1-.57,1.08,2.28,2.28,0,0,1-1.61.32,28.93,28.93,0,0,1-21-11.25l-1.76-1.68c-21-14.1,2.44-56.63,7-74.87A21.49,21.49,0,0,1,85.49,26c2.21-2.56,4.72-4.93,6.31-7.91,1.19-2.24,1.82-4.74,3-7a.89.89,0,0,1,.38-.44.86.86,0,0,1,.81.22c2.56,1.93,2.81,5.75,1.92,8.83s-2.66,5.86-3.4,9A22.83,22.83,0,0,0,94.61,38Z"/><path class="cls-1" d="M87.85,109.17a15,15,0,0,0,4.71,6.38c.54.48,4.64,4.19,4.28,4.54-.58.56-4.35-.67-5.33-1-7.08-2.06-10.3-6.74-15.55-11.19-8.84-7.48-8.73-17.74-6.5-28.5C71.77,68.26,76.06,57.61,80,46.91c1.69-4.63,2.82-9.54,4.62-14.11C86.21,28.68,89.39,26,92,22.53c2.23-2.89,2.76-7.36,5-10l-2.59.68c4.08,1.13-1.41,11.14-2.09,13.22-1.14,3.49-.93,6.78-.62,10.38a33.55,33.55,0,0,1,0,5l-1.43,24-2.54,42.66c-.2,3.42,5.12,3.41,5.32,0L95,75.72c.73-12.36,2.16-24.89,2.22-37.27,0-1.71-.48-3.39-.49-5.11,0-4.56,2.11-8,3.45-12.14,1.43-4.46,1.12-11.58-4.33-13.08a2.63,2.63,0,0,0-2.59.68c-1.68,1.94-2.24,4.61-3.31,6.9-1.9,4-5.33,6.7-7.82,10.31-3,4.36-3.89,9.65-5.57,14.58C73,51.08,68.66,61.31,65.77,72c-2.5,9.29-4.66,20.12-1.27,29.48a23.14,23.14,0,0,0,7.41,10c4.29,3.64,7.38,7.89,12.57,10.5,3.71,1.86,12.91,6,16.27,1.74,5.16-6.47-6.09-11.39-7.76-16C91.83,104.55,86.69,105.93,87.85,109.17Z"/><path class="cls-2" d="M112,75.73a41.15,41.15,0,0,1-82.3,0C29.7,53,48.12,20.86,70.84,20.86S112,53,112,75.73Z"/><circle class="cls-3" cx="36.55" cy="65.44" r="13.72"/><circle class="cls-3" cx="105.13" cy="65.82" r="13.72"/><path class="cls-1" d="M28.19,86.1S-2.42,95.52,9.35,104.93,32.9,100.22,28.19,86.1Z"/><path class="cls-1" d="M27.48,83.53a77.48,77.48,0,0,0-12.7,5.19C10.33,91,3.71,94.91,4,100.77c.4,7.77,11.5,11.44,17.74,9,9.41-3.74,11.64-15.6,9-24.34-1-3.27-6.13-1.88-5.13,1.42,1.91,6.33.67,17.78-7.92,18.5-3.71.31-10.74-3.12-7.13-7.23,4.3-4.91,12.24-7.52,18.32-9.41C32.16,87.65,30.77,82.51,27.48,83.53Z"/><path class="cls-1" d="M113.77,86.1s30.61,9.42,18.84,18.84S109.06,100.22,113.77,86.1Z"/><path class="cls-1" d="M113.06,88.66c6.07,1.88,14.05,4.49,18.32,9.41,3.58,4.12-3.4,7.54-7.13,7.23-8.58-.72-9.83-12.17-7.92-18.5,1-3.29-4.14-4.69-5.13-1.42-2.64,8.74-.41,20.59,9,24.34,6.23,2.48,17.33-1.19,17.74-9,.31-5.86-6.31-9.73-10.76-12a77.47,77.47,0,0,0-12.7-5.19C111.19,82.51,109.79,87.65,113.06,88.66Z"/><circle class="cls-1" cx="58.24" cy="34.14" r="5.1" transform="translate(-1.7 65.19) rotate(-57.77)"/><circle class="cls-1" cx="55.8" cy="44.56" r="2.66" transform="translate(-11.7 67.87) rotate(-57.66)"/><circle class="cls-1" cx="50.03" cy="39.24" r="2.66" transform="translate(-9.89 60.52) rotate(-57.66)"/><circle cx="30.25" cy="66.62" r="4.91"/><circle cx="110.54" cy="66.62" r="4.91"/><ellipse class="cls-3" cx="70.84" cy="75.89" rx="9.69" ry="9.99"/><path class="cls-1" d="M76.54,75.89c-.4,7.64-11.39,7.7-11.39,0s11-7.64,11.39,0c.27,5.11,8.25,5.14,8,0-.39-7.45-5.83-14-13.68-14-7.58,0-13.65,6.52-13.68,14a14,14,0,0,0,13.15,14c8.06.34,13.81-6.31,14.21-14C84.79,70.75,76.81,70.77,76.54,75.89Z"/></svg>