<svg id="Calque_1" data-name="Calque 1" xmlns="http://www.w3.org/2000/svg" viewBox="0 0 141 134"><defs><style>.cls-1{fill:#c079e7;}.cls-2{fill:#d9aff1;}.cls-3{fill:#fff;}.cls-4{fill:#3d2563;}</style></defs><title>P_07</title><path class="cls-1" d="M86.33,103.75c.85,2.3,4.16,3.83,7,5.35s5.64,3.68,4.87,6a1.57,1.57,0,0,1-.79.95,4.72,4.72,0,0,1-2.22.28c-11.32-.46-22.22-4.18-29.06-9.93l-2.44-1.48c-29-12.43,3.47-49.73,9.82-65.73a17.62,17.62,0,0,1,6.11-7.84c3.06-2.25,6.54-4.32,8.75-6.93,1.65-2,2.53-4.16,4.16-6.13a1,1,0,0,1,.53-.39,1.69,1.69,0,0,1,1.12.2c3.54,1.7,3.88,5.06,2.64,7.76S93.14,31,92.1,33.72s-.61,5.46.15,8.15Z"/><path class="cls-1" d="M84,105.1a11.62,11.62,0,0,0,4.28,4.28c1,.65,6.89,3.1,6.89,4.28,0,1.69-19.26-4.33-20.56-5-3.4-1.68-6.16-4.19-9.46-6C61.53,100.7,58,99,56,95.1c-3.59-7-.37-15.84,2.53-22.44C61.93,65,66.41,57.79,70.62,50.52c1.64-2.84,3.27-5.69,4.64-8.68,2.57-5.64,6.23-8.35,11.06-12a23.74,23.74,0,0,0,5.27-5.28,20,20,0,0,1,1.55-2.48l.79-1.24a3.24,3.24,0,0,1,.72,3.27c-.37,2.47-3.07,4.75-4.22,6.93A13.37,13.37,0,0,0,89,39.32c1.34,9.45-1.1,20.05-2,29.56l-3.34,34.88c-.33,3.41,5,3.39,5.32,0L92.61,66l2-20.85a23,23,0,0,0,.31-3.22c-.12-2.42-.93-4.08-.32-6.53a14.86,14.86,0,0,1,2.54-4.87c1.49-2.22,2.93-4.52,3-7.27.06-3.6-3.45-9.08-7.75-7.87-2,.57-3.18,3.07-4.19,4.68-2.38,3.77-5.69,6-9.21,8.56-7.48,5.48-10.72,15.51-15.33,23.36-7.57,12.9-22.33,35.17-9.74,49.39,3.24,3.66,7.81,5.24,11.7,8a50.91,50.91,0,0,0,19.74,8.46c4.16.83,14,3.69,15.5-2.34,1.86-7.39-9.66-8.34-12.19-13C87,99.39,82.41,102.08,84,105.1Z"/><path class="cls-2" d="M111.31,67.86c0,23.43-18.5,42.39-41.23,42.35S29,91.14,29,67.71,46.35,38.35,69.08,38.39,111.36,44.43,111.31,67.86Z"/><path class="cls-2" d="M108.65,67.86c-.29,16.25-9.85,31.58-25.39,37.33A38.15,38.15,0,0,1,40.71,93.41c-8.88-10.88-13.79-31-3.7-42.75C46,40.27,63.47,40.47,75.92,41.26c7.81.5,16.19,1.85,22.86,6.24,7.06,4.65,9.75,12.18,9.87,20.36.05,3.42,5.38,3.43,5.32,0-.13-8.19-2.42-16.25-8.61-21.95-5.73-5.26-13.39-7.81-20.94-9-15.14-2.47-36.18-3-48.66,7.55-13.3,11.25-11.1,33.19-3,46.81a43.85,43.85,0,0,0,45.52,20.85C99.34,108.15,113.6,88.78,114,67.86,114,64.44,108.71,64.44,108.65,67.86Z"/><ellipse class="cls-3" cx="35.88" cy="57.18" rx="13.72" ry="14.14"/><ellipse class="cls-3" cx="104.46" cy="57.57" rx="13.72" ry="14.14"/><ellipse cx="36.07" cy="58" rx="5.14" ry="5.3"/><ellipse cx="105.03" cy="58" rx="5.14" ry="5.3"/><path class="cls-1" d="M24.85,78.48S-5.76,88.19,6,97.9,29.56,93,24.85,78.48Z"/><path class="cls-1" d="M24.14,75.91a75.51,75.51,0,0,0-13,5.49C6.68,83.84.29,87.85.69,93.77c.52,7.72,11.47,11.55,17.73,9,9.55-3.89,11.59-16.14,9-25-1-3.28-6.1-1.88-5.13,1.42,1.85,6.33.93,17.76-7.41,19.09C11,98.9,3.55,95.21,7.16,90.84,11.37,85.77,19.44,83,25.56,81,28.81,80,27.42,74.86,24.14,75.91Z"/><path class="cls-1" d="M115.3,78.48s30.61,9.71,18.84,19.42S110.6,93,115.3,78.48Z"/><path class="cls-1" d="M114.6,81c6.12,2,14.18,4.72,18.39,9.8,3.47,4.19-3.39,7.85-7.2,7.52-8.75-.75-9.77-12.84-7.92-19.18,1-3.29-4.17-4.7-5.13-1.42-2.59,8.85-.55,21.1,9,25,6.26,2.55,17.21-1.27,17.73-9,.4-5.92-6-9.92-10.48-12.36a75.43,75.43,0,0,0-13-5.49C112.74,74.87,111.34,80,114.6,81Z"/><circle class="cls-1" cx="62.4" cy="96.09" r="5.1" transform="translate(-52.16 97.62) rotate(-57.77)"/><circle class="cls-1" cx="50.47" cy="96.17" r="2.66" transform="matrix(0.53, -0.84, 0.84, 0.53, -57.78, 87.37)"/><circle class="cls-1" cx="57.67" cy="103.88" r="2.66" transform="matrix(0.53, -0.84, 0.84, 0.53, -60.94, 97.03)"/><ellipse class="cls-3" cx="69.96" cy="69.88" rx="8.32" ry="12.91"/><path class="cls-4" d="M74.29,69.88c-.09,2.27-.82,8.92-4.33,8.92s-4.33-6.75-4.33-8.92S66.53,61,70,61s4.24,6.62,4.33,8.92c.21,5.12,8.19,5.15,8,0C82,62.81,78.59,53,70,53c-8.43,0-12.32,9.82-12.32,16.91S61.3,86.34,69.44,86.74c8.92.44,12.55-9.57,12.84-16.86C82.48,64.75,74.5,64.76,74.29,69.88Z"/></svg>