<svg id="Calque_1" data-name="Calque 1" xmlns="http://www.w3.org/2000/svg" viewBox="0 0 141 134"><defs><style>.cls-1{fill:#c079e7;}.cls-2{fill:#d9aff1;stroke:#d9aff1;stroke-miterlimit:10;stroke-width:0.44px;}.cls-3{fill:#fff;}.cls-4{fill:#3d2563;}.cls-5{fill:#347857;}</style></defs><title>P_06</title><path class="cls-1" d="M48.65,114.22c-.83,3-4,5-6.81,6.93s-5.48,4.76-4.74,7.76a2,2,0,0,0,.76,1.23,3.53,3.53,0,0,0,2.16.36c11-.57,21.57-5.37,28.21-12.81l2.37-1.91c28.15-16.06-3.28-64.52-9.4-85.3A23.25,23.25,0,0,0,55.28,20.3c-3-2.92-6.34-5.62-8.47-9-1.6-2.55-2.44-5.4-4-8a1.09,1.09,0,0,0-.51-.5,1.29,1.29,0,0,0-1.09.25c-3.43,2.2-3.77,6.55-2.58,10.06s3.57,6.68,4.57,10.23.58,7.08-.16,10.58Z"/><path class="cls-1" d="M46.09,113.51c-2.33,5.76-14,7.93-11.55,16.1,1.94,6.35,12.37,2.91,16.65,1.6,7.57-2.31,13.17-6.44,18.93-11.65,3.52-3.18,7.51-5.1,10.26-9.18,5.9-8.74,4.94-20.14,2.65-29.9-2.79-11.93-7.89-23.22-12.78-34.41-2.14-4.89-4.34-9.77-6-14.84-2.35-7.08-5.74-11.44-11-16.62-3.45-3.36-5-6.94-7.22-11.09-1.08-2-2.38-3.89-5-3.29-5.62,1.31-6.34,9.19-5,13.58,1.27,4,4.11,7.39,4.8,11.63.49,3-.39,5.74-.47,8.67,0,1.68.24,3.44.36,5.12l1.75,25,3.51,50c.24,3.4,5.56,3.42,5.32,0L45.86,36.51A18,18,0,0,1,46,32a22.28,22.28,0,0,0-.3-9.35c-1-3.63-3.47-6.66-4.57-10.23a7.28,7.28,0,0,1,.28-5.68c1.36-3,.34-.11-.09-.51a9.48,9.48,0,0,1,1.13,2.42,30.7,30.7,0,0,0,5.82,8.65c2.52,2.6,5.53,4.82,7.56,7.86,1.69,2.55,2.51,5.41,3.48,8.27,6.52,19.11,18.62,37.12,20,57.71.35,5.09-.07,10.42-2.6,15s-6.58,6.3-10.18,9.51c-6.48,5.78-12.8,10.08-21.58,11.64-1.55.28-5.4,1.65-4.94-.69.4-2,3.93-3.65,5.51-4.83a15.35,15.35,0,0,0,5.62-6.8C52.5,111.76,47.36,110.38,46.09,113.51Z"/><path class="cls-2" d="M110.8,75.83c0,21.68-17.58,51.25-39.26,51.25S32.28,97.51,32.28,75.83,49.86,12.59,71.54,12.59,110.8,54.15,110.8,75.83Z"/><circle class="cls-3" cx="38.83" cy="68.2" r="13.09"/><circle class="cls-3" cx="104.25" cy="68.56" r="13.09"/><path class="cls-1" d="M30.39,85.72S1.33,99.3,12.51,112.87,34.86,106.09,30.39,85.72Z"/><path class="cls-1" d="M29,83.43C19.74,87.82,3.38,98.15,8.11,110.58c2.78,7.32,11.69,12.49,18.31,6.67C35,109.75,35,95.17,33,85c-.66-3.36-5.8-1.94-5.13,1.42,1.57,7.94,2,20.13-4.42,26.36-5.54,5.41-12.44-3.74-10.12-9.44C16.18,96.2,25,91.18,31.73,88,34.83,86.56,32.13,82,29,83.43Z"/><path class="cls-1" d="M112.51,85.72s29.2,13.57,18,27.15S108,106.09,112.51,85.72Z"/><path class="cls-1" d="M111.16,88c6.71,3.15,15.63,8.17,18.56,15.33,2.22,5.44-4.21,14.6-9.83,9.81-6.89-5.87-6.38-18.86-4.81-26.73.67-3.35-4.46-4.78-5.13-1.42-2,10.1-2,24.22,6.18,31.91,6.62,6.23,15.87,1.23,18.77-6.35,4.76-12.46-11.72-22.78-21-27.16C110.77,82,108.06,86.57,111.16,88Z"/><circle class="cls-1" cx="77.04" cy="24.73" r="5.1"/><circle class="cls-1" cx="83.48" cy="34.71" r="2.66"/><circle class="cls-1" cx="86.14" cy="24.51" r="2.66"/><path class="cls-3" d="M72,70.9c-4.29,0-13.91,6.67-13.91,13.53s27.43,6.86,27.43,0S76.29,70.9,72,70.9Z"/><path class="cls-4" d="M72,66.91c-8,.64-19.92,9.9-17.71,19,1.66,6.86,11.93,7.6,17.52,7.6s15.82-.75,17.52-7.6c2.25-9-9.34-18.41-17.33-19-5.12-.41-5.1,7.58,0,8,2.39.19,4.85,2.26,6.47,3.89a16.89,16.89,0,0,1,2.64,3.81c.64,1.11-.33,2.16.57,1.12-1.78,2-7.53,1.86-9.87,1.86s-8,.19-9.87-1.86c.78.87-.18.54.34-.5a14.62,14.62,0,0,1,3-4.43c1.71-1.64,4.25-3.7,6.7-3.89C77.09,74.49,77.13,66.5,72,66.91Z"/><circle class="cls-1" cx="66.62" cy="121.21" r="2.66"/><circle class="cls-1" cx="51.98" cy="94.15" r="2.66"/><circle class="cls-5" cx="42.22" cy="65.45" r="5.14"/><circle class="cls-5" cx="100.51" cy="65.45" r="5.14"/></svg>