<svg id="Calque_1" data-name="Calque 1" xmlns="http://www.w3.org/2000/svg" viewBox="0 0 141 134"><defs><style>.cls-1{fill:#5e5f60;}.cls-2{fill:#bbbdbf;}.cls-3{fill:#fff;}.cls-4{fill:#68efad;}</style></defs><title>P_11</title><path class="cls-1" d="M87.1,103.91c.86,2.3,4.17,3.82,7,5.34s5.65,3.67,4.88,6a1.57,1.57,0,0,1-.78.95,4.72,4.72,0,0,1-2.22.28c-11.32-.44-22.23-4.14-29.08-9.88l-2.44-1.47c-29-12.38,3.38-49.74,9.69-65.75a17.62,17.62,0,0,1,6.1-7.85c3.05-2.25,6.53-4.33,8.73-7,1.65-2,2.52-4.16,4.15-6.14a1,1,0,0,1,.53-.39,1.69,1.69,0,0,1,1.12.2c3.54,1.7,3.89,5,2.66,7.75s-3.68,5.15-4.71,7.88-.6,5.46.16,8.15Z"/><path class="cls-1" d="M84.8,105.25a11.63,11.63,0,0,0,4.29,4.28c1,.65,6.91,3.1,6.91,4.27,0,1.69-19.27-4.29-20.57-4.93-3.4-1.67-6.17-4.18-9.48-6-3.65-2-7.18-3.71-9.18-7.57-3.6-7-.4-15.83,2.49-22.44,3.37-7.71,7.84-14.89,12-22.16,1.64-2.84,3.26-5.7,4.62-8.68,2.56-5.64,6.21-8.36,11-12a23.74,23.74,0,0,0,5.26-5.29,20,20,0,0,1,1.55-2.49L94.55,21a3.23,3.23,0,0,1,.73,3.26c-.36,2.47-3.06,4.76-4.21,6.94a13.37,13.37,0,0,0-1.4,8.28C91,48.91,88.6,59.51,87.71,69l-3.27,34.88c-.32,3.41,5,3.39,5.32,0L93.31,66.1l2-20.86a23.06,23.06,0,0,0,.3-3.22c-.13-2.42-.94-4.07-.33-6.53a14.83,14.83,0,0,1,2.53-4.88c1.49-2.23,2.93-4.52,3-7.28.06-3.6-3.46-9.07-7.76-7.86-2,.57-3.17,3.07-4.19,4.68-2.37,3.77-5.68,6-9.19,8.58C72.12,34.23,68.9,44.26,64.3,52.12,56.76,65,42,87.33,54.65,101.54c3.25,3.65,7.82,5.22,11.71,8a50.91,50.91,0,0,0,19.76,8.43c4.16.82,14,3.66,15.5-2.36,1.86-7.39-9.67-8.32-12.22-13C87.77,99.55,83.17,102.23,84.8,105.25Z"/><path class="cls-2" d="M112,68c0,23.43-18.42,42.43-41.15,42.43S29.72,91.4,29.72,68s17.28-29.4,40-29.4S112,44.54,112,68Z"/><path class="cls-2" d="M109.35,68c-.26,16.25-9.79,31.6-25.32,37.38a38.15,38.15,0,0,1-42.57-11.7c-8.91-10.86-13.85-31-3.79-42.74,8.93-10.41,26.44-10.25,38.89-9.48,7.82.48,16.2,1.82,22.87,6.19,7.07,4.63,9.78,12.16,9.92,20.34.06,3.42,5.38,3.43,5.32,0-.14-8.19-2.44-16.25-8.65-21.93-5.74-5.25-13.4-7.78-21-9-15.15-2.44-36.19-2.93-48.65,7.64-13.28,11.27-11,33.21-2.94,46.81A43.85,43.85,0,0,0,79,112.26c21.07-4,35.3-23.37,35.63-44.29C114.73,64.54,109.41,64.54,109.35,68Z"/><ellipse class="cls-3" cx="36.58" cy="57.36" rx="13.72" ry="14.14"/><ellipse class="cls-3" cx="105.16" cy="57.76" rx="13.72" ry="14.14"/><ellipse class="cls-4" cx="40.76" cy="55.08" rx="5.14" ry="5.3"/><ellipse class="cls-4" cx="100.85" cy="55.08" rx="5.14" ry="5.3"/><path class="cls-1" d="M25.55,78.66S-5.06,88.37,6.72,98.08,30.26,93.23,25.55,78.66Z"/><path class="cls-1" d="M24.84,76.1a75.51,75.51,0,0,0-13,5.49C7.38,84,1,88,1.39,94c.52,7.72,11.47,11.55,17.73,9,9.55-3.89,11.59-16.14,9-25-1-3.28-6.1-1.88-5.13,1.42,1.85,6.33.93,17.76-7.41,19.09-3.85.62-11.32-3.07-7.71-7.44,4.21-5.08,12.27-7.84,18.39-9.8C29.51,80.19,28.12,75,24.84,76.1Z"/><path class="cls-1" d="M116,78.66s30.61,9.71,18.84,19.42S111.3,93.23,116,78.66Z"/><path class="cls-1" d="M115.3,81.23c6.12,2,14.18,4.72,18.39,9.8,3.47,4.19-3.39,7.85-7.2,7.52-8.75-.75-9.77-12.84-7.92-19.18,1-3.29-4.17-4.7-5.13-1.42-2.59,8.85-.55,21.1,9,25,6.26,2.55,17.21-1.27,17.73-9,.4-5.92-6-9.92-10.48-12.36a75.43,75.43,0,0,0-13-5.49C113.44,75,112,80.19,115.3,81.23Z"/><circle class="cls-1" cx="63.1" cy="96.27" r="5.1" transform="translate(-51.99 98.3) rotate(-57.77)"/><circle class="cls-1" cx="51.23" cy="96.39" r="2.66" transform="translate(-57.63 88.31) rotate(-57.77)"/><circle class="cls-1" cx="58.44" cy="104.08" r="2.66" transform="translate(-60.77 98) rotate(-57.77)"/><path class="cls-3" d="M70.86,76.42c4.09,0,13.27-6.36,13.27-12.9S58,57,58,63.52,66.77,76.42,70.86,76.42Z"/><path class="cls-1" d="M70.86,80.41c7.77-.65,19.26-9.54,17.07-18.42C86.3,55.37,76.47,54.62,71,54.62s-15.2.75-16.89,7.37c-2.23,8.76,9,17.77,16.71,18.42,5.12.43,5.09-7.55,0-8-2.22-.19-4.63-2.23-6.09-3.72a16.63,16.63,0,0,1-2.62-4c-.66-1.17.52-1.22-.3-.51,2-1.77,6.72-1.63,9.19-1.63s7.29-.19,9.19,1.63c-.59-.57,1-1.75-.31.51a18.57,18.57,0,0,1-2.29,3.51c-1.57,1.71-4.35,4-6.77,4.18C65.78,72.86,65.73,80.85,70.86,80.41Z"/></svg>