<svg id="Calque_1" data-name="Calque 1" xmlns="http://www.w3.org/2000/svg" viewBox="0 0 141 134"><defs><style>.cls-1{fill:#5e5f60;}.cls-2{fill:#bbbdbf;stroke:#bbbdbf;stroke-miterlimit:10;stroke-width:0.44px;}.cls-3{fill:#fff;}</style></defs><title>P_10</title><path class="cls-1" d="M48,114.7c-.83,3-4,5-6.81,6.93s-5.48,4.76-4.74,7.76a2,2,0,0,0,.76,1.23,3.53,3.53,0,0,0,2.16.36c11-.57,21.57-5.37,28.21-12.81L70,116.26c28.15-16.06-3.28-64.52-9.4-85.3a23.25,23.25,0,0,0-5.92-10.18c-3-2.92-6.34-5.62-8.47-9-1.6-2.55-2.44-5.4-4-8a1.09,1.09,0,0,0-.51-.5,1.29,1.29,0,0,0-1.09.25C37.13,5.75,36.79,10.1,38,13.61s3.57,6.68,4.57,10.23.58,7.08-.16,10.58Z"/><path class="cls-1" d="M45.47,114c-2.33,5.76-14,7.93-11.55,16.1,1.94,6.35,12.37,2.91,16.65,1.6,7.57-2.31,13.17-6.44,18.93-11.65,3.52-3.18,7.51-5.1,10.26-9.18,5.9-8.74,4.94-20.14,2.65-29.9C79.63,69,74.52,57.75,69.63,46.56c-2.14-4.89-4.34-9.77-6-14.84-2.35-7.08-5.74-11.44-11-16.62-3.45-3.36-5-6.94-7.22-11.09C44.26,2,43,.13,40.39.73,34.77,2,34,9.93,35.42,14.31c1.27,4,4.11,7.39,4.8,11.63.49,3-.39,5.74-.47,8.67,0,1.68.24,3.44.36,5.12l1.75,25,3.51,50c.24,3.4,5.56,3.42,5.32,0L45.25,37a18,18,0,0,1,.18-4.52,22.28,22.28,0,0,0-.3-9.35c-1-3.63-3.47-6.66-4.57-10.23a7.28,7.28,0,0,1,.28-5.68c1.36-3,.34-.11-.09-.51a9.48,9.48,0,0,1,1.13,2.42,30.7,30.7,0,0,0,5.82,8.65c2.52,2.6,5.53,4.82,7.56,7.86,1.69,2.55,2.51,5.41,3.48,8.27C65.26,53,77.36,71,78.76,91.62c.35,5.09-.07,10.42-2.6,15s-6.58,6.3-10.18,9.51c-6.48,5.78-12.8,10.08-21.58,11.64-1.55.28-5.4,1.65-4.94-.69.4-2,3.93-3.65,5.51-4.83a15.35,15.35,0,0,0,5.62-6.8C51.89,112.24,46.74,110.85,45.47,114Z"/><path class="cls-2" d="M110.18,76.31c0,21.68-17.58,51.25-39.26,51.25S31.67,98,31.67,76.31,49.24,13.07,70.92,13.07,110.18,54.63,110.18,76.31Z"/><circle class="cls-3" cx="38.21" cy="68.68" r="13.09"/><circle class="cls-3" cx="103.64" cy="69.04" r="13.09"/><circle cx="44.35" cy="67.49" r="4.91"/><circle cx="110" cy="67.04" r="4.91"/><path class="cls-1" d="M29.77,86.2S.72,99.78,11.89,113.35,34.24,106.57,29.77,86.2Z"/><path class="cls-1" d="M28.43,83.91C19.12,88.3,2.76,98.63,7.49,111.06c2.78,7.32,11.69,12.49,18.31,6.67,8.55-7.51,8.54-22.09,6.53-32.24-.66-3.36-5.8-1.94-5.13,1.42,1.57,7.94,2,20.13-4.42,26.36-5.54,5.41-12.44-3.74-10.12-9.44,2.91-7.15,11.77-12.18,18.46-15.33C34.21,87,31.51,82.45,28.43,83.91Z"/><path class="cls-1" d="M111.89,86.2s29.2,13.57,18,27.15S107.4,106.57,111.89,86.2Z"/><path class="cls-1" d="M110.55,88.5c6.71,3.15,15.63,8.17,18.56,15.33,2.22,5.44-4.21,14.6-9.83,9.81-6.89-5.87-6.38-18.86-4.81-26.73.67-3.35-4.46-4.78-5.13-1.42-2,10.1-2,24.22,6.18,31.91,6.62,6.23,15.87,1.23,18.77-6.35,4.76-12.46-11.72-22.78-21-27.16C110.15,82.46,107.45,87,110.55,88.5Z"/><circle class="cls-1" cx="76.43" cy="25.21" r="5.1"/><circle class="cls-1" cx="87.29" cy="28.53" r="2.66"/><circle class="cls-1" cx="66.89" cy="18.33" r="2.66"/><circle class="cls-1" cx="64.67" cy="26.76" r="2.66"/><ellipse class="cls-3" cx="70.54" cy="80.48" rx="8.32" ry="12.91"/><path class="cls-1" d="M74.87,80.48c-.09,2.27-.82,8.92-4.33,8.92s-4.33-6.75-4.33-8.92.9-8.92,4.33-8.92,4.24,6.62,4.33,8.92c.21,5.12,8.19,5.15,8,0-.28-7.07-3.69-16.91-12.32-16.91-8.43,0-12.32,9.82-12.32,16.91S61.88,96.93,70,97.34c8.92.44,12.55-9.57,12.84-16.86C83.06,75.34,75.08,75.35,74.87,80.48Z"/></svg>