<svg id="Calque_1" data-name="Calque 1" xmlns="http://www.w3.org/2000/svg" viewBox="0 0 141 134"><defs><style>.cls-1{fill:#5e5f60;}.cls-2{fill:#bbbdbf;}.cls-3{fill:#fff;}</style></defs><title>P_12</title><path class="cls-1" d="M86.54,103.55c.86,2.3,4.17,3.82,7,5.34s5.65,3.67,4.88,6a1.57,1.57,0,0,1-.78.95,4.72,4.72,0,0,1-2.22.28c-11.32-.44-22.23-4.14-29.08-9.88l-2.44-1.47C34.9,92.37,67.3,55,73.61,39a17.62,17.62,0,0,1,6.1-7.85c3.05-2.25,6.53-4.33,8.73-7,1.65-2,2.52-4.16,4.15-6.14a1,1,0,0,1,.53-.39,1.69,1.69,0,0,1,1.12.2c3.54,1.7,3.89,5,2.66,7.75s-3.68,5.15-4.71,7.88-.6,5.46.16,8.15Z"/><path class="cls-1" d="M84.25,104.89a11.63,11.63,0,0,0,4.29,4.28c1,.65,6.91,3.1,6.91,4.27,0,1.69-19.27-4.29-20.57-4.93-3.4-1.67-6.17-4.18-9.48-6-3.65-2-7.18-3.71-9.18-7.57-3.6-7-.4-15.83,2.49-22.44,3.37-7.71,7.84-14.89,12-22.16,1.64-2.84,3.26-5.7,4.62-8.68,2.56-5.64,6.21-8.36,11-12a23.74,23.74,0,0,0,5.26-5.29,20,20,0,0,1,1.55-2.49L94,20.61a3.23,3.23,0,0,1,.73,3.26c-.36,2.47-3.06,4.76-4.21,6.94a13.37,13.37,0,0,0-1.4,8.28c1.36,9.45-1.06,20.05-2,29.56l-3.27,34.88c-.32,3.41,5,3.39,5.32,0l3.54-37.81,2-20.86a23.06,23.06,0,0,0,.3-3.22c-.13-2.42-.94-4.07-.33-6.53a14.83,14.83,0,0,1,2.53-4.88c1.49-2.23,2.93-4.52,3-7.28.06-3.6-3.46-9.07-7.76-7.86-2,.57-3.17,3.07-4.19,4.68-2.37,3.77-5.68,6-9.19,8.58C71.56,33.87,68.34,43.9,63.75,51.76,56.2,64.68,41.48,87,54.09,101.17c3.25,3.65,7.82,5.22,11.71,8a50.91,50.91,0,0,0,19.76,8.43c4.16.82,14,3.66,15.5-2.36,1.86-7.39-9.67-8.32-12.22-13C87.21,99.19,82.61,101.87,84.25,104.89Z"/><path class="cls-2" d="M111.46,67.61C111.46,91,93,110,70.31,110S29.16,91,29.16,67.61s17.28-29.4,40-29.4S111.46,44.18,111.46,67.61Z"/><path class="cls-2" d="M108.8,67.61C108.54,83.86,99,99.21,83.48,105a38.15,38.15,0,0,1-42.57-11.7c-8.91-10.86-13.85-31-3.79-42.74C46,40.14,63.56,40.3,76,41.07c7.82.48,16.2,1.82,22.87,6.19,7.07,4.63,9.78,12.16,9.92,20.34.06,3.42,5.38,3.43,5.32,0-.14-8.19-2.44-16.25-8.65-21.93-5.74-5.25-13.4-7.78-21-9-15.15-2.44-36.19-2.93-48.65,7.64-13.28,11.27-11,33.21-2.94,46.81A43.85,43.85,0,0,0,78.49,111.9c21.07-4,35.3-23.37,35.63-44.29C114.17,64.18,108.85,64.18,108.8,67.61Z"/><ellipse class="cls-3" cx="36.02" cy="57" rx="13.72" ry="14.14"/><ellipse class="cls-3" cx="104.6" cy="57.39" rx="13.72" ry="14.14"/><ellipse cx="36.21" cy="62.7" rx="5.14" ry="5.3"/><ellipse cx="105.17" cy="62.7" rx="5.14" ry="5.3"/><path class="cls-1" d="M25,78.3S-5.61,88,6.16,97.72,29.7,92.87,25,78.3Z"/><path class="cls-1" d="M24.29,75.73a75.51,75.51,0,0,0-13,5.49C6.83,83.67.44,87.68.83,93.59c.52,7.72,11.47,11.55,17.73,9,9.55-3.89,11.59-16.14,9-25-1-3.28-6.1-1.88-5.13,1.42,1.85,6.33.93,17.76-7.41,19.09-3.85.62-11.32-3.07-7.71-7.44,4.21-5.08,12.27-7.84,18.39-9.8C29,79.83,27.56,74.69,24.29,75.73Z"/><path class="cls-1" d="M115.45,78.3S146.06,88,134.28,97.72,110.74,92.87,115.45,78.3Z"/><path class="cls-1" d="M114.74,80.87c6.12,2,14.18,4.72,18.39,9.8,3.47,4.19-3.39,7.85-7.2,7.52-8.75-.75-9.77-12.84-7.92-19.18,1-3.29-4.17-4.7-5.13-1.42-2.59,8.85-.55,21.1,9,25,6.26,2.55,17.21-1.27,17.73-9,.4-5.92-6-9.92-10.48-12.36a75.43,75.43,0,0,0-13-5.49C112.89,74.69,111.49,79.83,114.74,80.87Z"/><circle class="cls-1" cx="62.54" cy="95.91" r="5.1" transform="translate(-51.95 97.66) rotate(-57.77)"/><circle class="cls-1" cx="50.67" cy="96.03" r="2.66" transform="translate(-57.59 87.67) rotate(-57.77)"/><circle class="cls-1" cx="57.88" cy="103.72" r="2.66" transform="translate(-60.73 97.36) rotate(-57.77)"/><path class="cls-3" d="M70.75,56.55C74.83,56.55,84,62.81,84,69.26s-26.17,6.45-26.17,0S66.66,56.55,70.75,56.55Z"/><path class="cls-1" d="M70.75,60.51c2.25.19,4.79,2.17,6.32,3.66a14,14,0,0,1,2.76,3.89c.62,1.21-.45,1.15.3.47-2,1.77-6.81,1.6-9.21,1.6s-7.42.22-9.21-1.6c.49.49-.82,1.89.29-.47a13.23,13.23,0,0,1,2.18-3.44c1.53-1.7,4.18-3.91,6.56-4.11,5-.42,5.09-8.35,0-7.93-7.68.64-18.85,9.45-16.68,18.19,1.64,6.58,11.47,7.28,16.86,7.28s15.18-.7,16.86-7.28C90,62,78.37,53.21,70.75,52.58,65.66,52.16,65.69,60.09,70.75,60.51Z"/></svg>