<svg id="Calque_1" data-name="Calque 1" xmlns="http://www.w3.org/2000/svg" viewBox="0 0 141 134"><defs><style>.cls-1{fill:#347857;}.cls-2{fill:#68efad;stroke:#68efad;stroke-miterlimit:10;stroke-width:0.44px;}.cls-3{fill:#fff;}</style></defs><title>P_03</title><path class="cls-1" d="M48.15,114.5c-.83,3-4,5-6.81,6.93s-5.48,4.76-4.74,7.76a2,2,0,0,0,.76,1.23,3.53,3.53,0,0,0,2.16.36c11-.57,21.57-5.37,28.21-12.81l2.37-1.91c28.15-16.06-3.28-64.52-9.4-85.3a23.25,23.25,0,0,0-5.92-10.18c-3-2.92-6.34-5.62-8.47-9-1.6-2.55-2.44-5.4-4-8a1.09,1.09,0,0,0-.51-.5,1.29,1.29,0,0,0-1.09.25c-3.43,2.2-3.77,6.55-2.58,10.06s3.57,6.68,4.57,10.23.58,7.08-.16,10.58Z"/><path class="cls-1" d="M45.59,113.79c-2.33,5.76-14,7.93-11.55,16.1,1.94,6.35,12.37,2.91,16.65,1.6,7.57-2.31,13.17-6.44,18.93-11.65,3.52-3.18,7.51-5.1,10.26-9.18,5.9-8.74,4.94-20.14,2.65-29.9-2.79-11.93-7.89-23.22-12.78-34.41-2.14-4.89-4.34-9.77-6-14.84-2.35-7.08-5.74-11.44-11-16.62-3.45-3.36-5-6.94-7.22-11.09-1.08-2-2.38-3.89-5-3.29-5.62,1.31-6.34,9.19-5,13.58,1.27,4,4.11,7.39,4.8,11.63.49,3-.39,5.74-.47,8.67,0,1.68.24,3.44.36,5.12l1.75,25,3.51,50c.24,3.4,5.56,3.42,5.32,0L45.36,36.79a18,18,0,0,1,.18-4.52,22.28,22.28,0,0,0-.3-9.35c-1-3.63-3.47-6.66-4.57-10.23A7.28,7.28,0,0,1,41,7c1.36-3,.34-.11-.09-.51A9.48,9.48,0,0,1,42,8.92a30.7,30.7,0,0,0,5.82,8.65c2.52,2.6,5.53,4.82,7.56,7.86,1.69,2.55,2.51,5.41,3.48,8.27,6.52,19.11,18.62,37.12,20,57.71.35,5.09-.07,10.42-2.6,15s-6.58,6.3-10.18,9.51c-6.48,5.78-12.8,10.08-21.58,11.64-1.55.28-5.4,1.65-4.94-.69.4-2,3.93-3.65,5.51-4.83a15.35,15.35,0,0,0,5.62-6.8C52,112,46.86,110.65,45.59,113.79Z"/><path class="cls-2" d="M110.3,76.11c0,21.68-17.58,51.25-39.26,51.25S31.78,97.79,31.78,76.11,49.36,12.86,71,12.86,110.3,54.43,110.3,76.11Z"/><circle class="cls-3" cx="38.33" cy="68.48" r="13.09"/><circle class="cls-3" cx="103.75" cy="68.84" r="13.09"/><path class="cls-3" d="M70.86,89.74c4.09,0,13.27-6.36,13.27-12.9S58,70.29,58,76.84,66.77,89.74,70.86,89.74Z"/><path class="cls-1" d="M70.86,93.73c7.77-.65,19.26-9.54,17.07-18.42C86.3,68.69,76.47,67.94,71,67.94s-15.2.75-16.89,7.37c-2.23,8.76,9,17.77,16.71,18.42,5.12.43,5.09-7.55,0-8-2.22-.19-4.63-2.23-6.09-3.72a16.63,16.63,0,0,1-2.62-4c-.66-1.17.52-1.22-.3-.51,2-1.77,6.72-1.63,9.19-1.63s7.29-.19,9.19,1.63c-.59-.57,1-1.75-.31.51a18.57,18.57,0,0,1-2.29,3.51c-1.57,1.71-4.35,4-6.77,4.18C65.77,86.17,65.73,94.16,70.86,93.73Z"/><circle cx="31.6" cy="66.84" r="4.91"/><circle cx="110.11" cy="66.84" r="4.91"/><path class="cls-1" d="M29.89,86S.83,99.58,12,113.15,34.36,106.36,29.89,86Z"/><path class="cls-1" d="M28.54,83.7C19.24,88.09,2.88,98.43,7.61,110.86c2.78,7.32,11.69,12.49,18.31,6.67,8.55-7.51,8.54-22.09,6.53-32.24-.66-3.36-5.8-1.94-5.13,1.42,1.57,7.94,2,20.13-4.42,26.36-5.54,5.41-12.44-3.74-10.12-9.44,2.91-7.15,11.77-12.18,18.46-15.33C34.33,86.84,31.63,82.25,28.54,83.7Z"/><path class="cls-1" d="M112,86s29.2,13.57,18,27.15S107.52,106.36,112,86Z"/><path class="cls-1" d="M110.66,88.3c6.71,3.15,15.63,8.17,18.56,15.33,2.22,5.44-4.21,14.6-9.83,9.81-6.89-5.87-6.38-18.86-4.81-26.73.67-3.35-4.46-4.78-5.13-1.42-2,10.1-2,24.22,6.18,31.91,6.62,6.23,15.87,1.23,18.77-6.35,4.76-12.46-11.72-22.78-21-27.16C110.27,82.26,107.56,86.84,110.66,88.3Z"/><circle class="cls-1" cx="76.54" cy="25" r="5.1"/><circle class="cls-1" cx="82.98" cy="34.98" r="2.66"/><circle class="cls-1" cx="85.64" cy="24.78" r="2.66"/></svg>