<svg id="Calque_1" data-name="Calque 1" xmlns="http://www.w3.org/2000/svg" viewBox="0 0 141 134"><defs><style>.cls-1{fill:#c079e7;}.cls-2{fill:#d9aff1;stroke:#d9aff1;stroke-miterlimit:10;stroke-width:0.44px;}.cls-3{fill:#fff;}.cls-4{fill:#3d2563;}.cls-5{fill:#68efad;}</style></defs><title>P_05</title><path class="cls-1" d="M90.08,108.75c.62,2.62,3,4.35,5.07,6.08s4.08,4.18,3.52,6.81a1.85,1.85,0,0,1-.57,1.08,2.28,2.28,0,0,1-1.61.32,28.93,28.93,0,0,1-21-11.25l-1.76-1.68c-21-14.1,2.44-56.63,7-74.87a21.49,21.49,0,0,1,4.4-8.94c2.21-2.56,4.72-4.93,6.31-7.91,1.19-2.24,1.82-4.74,3-7a.89.89,0,0,1,.38-.44.86.86,0,0,1,.81.22c2.56,1.93,2.81,5.75,1.92,8.83s-2.66,5.86-3.4,9a22.83,22.83,0,0,0,.12,9.28Z"/><path class="cls-1" d="M87.52,109.46a15,15,0,0,0,4.71,6.38c.54.48,4.64,4.19,4.28,4.54-.58.56-4.35-.67-5.33-1-7.08-2.06-10.3-6.74-15.55-11.19-8.84-7.48-8.73-17.74-6.5-28.5,2.31-11.19,6.6-21.84,10.51-32.54,1.69-4.63,2.82-9.54,4.62-14.11,1.63-4.12,4.81-6.85,7.45-10.27,2.23-2.89,2.76-7.36,5-10l-2.59.68C98.2,14.67,92.71,24.68,92,26.76c-1.14,3.49-.93,6.78-.62,10.38a33.55,33.55,0,0,1,0,5L90,66.09l-2.54,42.66c-.2,3.42,5.12,3.41,5.32,0L94.69,76c.73-12.36,2.16-24.89,2.22-37.27,0-1.71-.48-3.39-.49-5.11,0-4.56,2.11-8,3.45-12.14C101.3,17,101,9.91,95.54,8.41a2.63,2.63,0,0,0-2.59.68C91.27,11,90.71,13.7,89.64,16c-1.9,4-5.33,6.7-7.82,10.31-3,4.36-3.89,9.65-5.57,14.58C72.66,51.37,68.32,61.6,65.43,72.32c-2.5,9.29-4.66,20.12-1.27,29.48a23.14,23.14,0,0,0,7.41,10c4.29,3.64,7.38,7.89,12.57,10.5,3.71,1.86,12.91,6,16.27,1.74,5.16-6.47-6.09-11.39-7.76-16C91.49,104.85,86.35,106.23,87.52,109.46Z"/><path class="cls-2" d="M111.65,76a41.15,41.15,0,0,1-82.3,0c0-22.73,18.42-54.86,41.15-54.86S111.65,53.3,111.65,76Z"/><circle class="cls-3" cx="36.22" cy="65.73" r="13.72"/><circle class="cls-3" cx="104.8" cy="66.11" r="13.72"/><path class="cls-3" d="M70.7,65.92c-4.29,0-13.91,6.67-13.91,13.53s27.43,6.86,27.43,0S75,65.92,70.7,65.92Z"/><path class="cls-4" d="M70.7,61.93c-8,.64-19.92,9.9-17.71,19,1.66,6.86,11.93,7.6,17.52,7.6S86.32,87.84,88,81c2.25-9-9.34-18.41-17.33-19-5.12-.41-5.1,7.58,0,8,2.39.19,4.85,2.26,6.47,3.89a16.89,16.89,0,0,1,2.64,3.81c.64,1.11-.33,2.16.57,1.12-1.78,2-7.53,1.86-9.87,1.86s-8,.19-9.87-1.86c.78.87-.18.54.34-.5a14.62,14.62,0,0,1,3-4.43c1.71-1.64,4.25-3.7,6.7-3.89C75.78,69.51,75.83,61.52,70.7,61.93Z"/><circle class="cls-5" cx="41.36" cy="64.02" r="5.14"/><circle class="cls-5" cx="99.65" cy="64.02" r="5.14"/><path class="cls-1" d="M27.85,86.39S-2.76,95.81,9,105.22,32.56,100.52,27.85,86.39Z"/><path class="cls-1" d="M27.14,83.82A77.48,77.48,0,0,0,14.45,89C10,91.33,3.37,95.2,3.68,101.06c.4,7.77,11.5,11.44,17.74,9,9.41-3.74,11.64-15.6,9-24.34-1-3.27-6.13-1.88-5.13,1.42,1.91,6.33.67,17.78-7.92,18.5-3.71.31-10.74-3.12-7.13-7.23,4.3-4.91,12.24-7.52,18.32-9.41C31.82,87.94,30.43,82.8,27.14,83.82Z"/><path class="cls-1" d="M113.43,86.39s30.61,9.42,18.84,18.84S108.72,100.52,113.43,86.39Z"/><path class="cls-1" d="M112.72,89c6.07,1.88,14.05,4.49,18.32,9.41,3.58,4.12-3.4,7.54-7.13,7.23-8.58-.72-9.83-12.17-7.92-18.5,1-3.29-4.14-4.69-5.13-1.42-2.64,8.74-.41,20.59,9,24.34,6.23,2.48,17.33-1.19,17.74-9,.31-5.86-6.31-9.73-10.76-12a77.47,77.47,0,0,0-12.7-5.19C110.85,82.81,109.45,87.94,112.72,89Z"/><circle class="cls-1" cx="57.9" cy="34.43" r="5.1" transform="translate(-2.1 65.04) rotate(-57.77)"/><circle class="cls-1" cx="55.46" cy="44.85" r="2.66" transform="matrix(0.53, -0.84, 0.84, 0.53, -12.11, 67.71)"/><circle class="cls-1" cx="49.69" cy="39.53" r="2.66" transform="translate(-10.29 60.37) rotate(-57.66)"/></svg>