<svg id="Calque_1" data-name="Calque 1" xmlns="http://www.w3.org/2000/svg" viewBox="0 0 141 134"><defs><style>.cls-1{fill:#347857;}.cls-2{fill:#68efad;}.cls-3{fill:#fff;}</style></defs><title>P_02</title><path class="cls-1" d="M86.65,103.92c.85,2.3,4.16,3.83,7,5.35s5.64,3.68,4.87,6a1.57,1.57,0,0,1-.79.95,4.72,4.72,0,0,1-2.22.28C84.2,116,73.3,112.3,66.46,106.55L64,105.08c-29-12.43,3.47-49.73,9.82-65.73a17.62,17.62,0,0,1,6.11-7.84c3.06-2.25,6.54-4.32,8.75-6.93,1.65-2,2.53-4.16,4.16-6.13a1,1,0,0,1,.53-.39,1.69,1.69,0,0,1,1.12.2C98,20,98.38,23.31,97.15,26s-3.69,5.14-4.73,7.88-.61,5.46.15,8.15Z"/><path class="cls-1" d="M84.35,105.26a11.62,11.62,0,0,0,4.28,4.28c1,.65,6.89,3.1,6.89,4.28,0,1.69-19.26-4.33-20.56-5-3.4-1.68-6.16-4.19-9.46-6-3.65-2-7.17-3.73-9.17-7.59-3.59-7-.37-15.84,2.53-22.44C62.25,65.12,66.73,58,70.94,50.69,72.58,47.85,74.21,45,75.57,42c2.57-5.64,6.23-8.35,11.06-12a23.74,23.74,0,0,0,5.27-5.28,20,20,0,0,1,1.55-2.48L94.25,21A3.24,3.24,0,0,1,95,24.27c-.37,2.47-3.07,4.75-4.22,6.93a13.37,13.37,0,0,0-1.41,8.28c1.34,9.45-1.1,20.05-2,29.56L84,103.92c-.33,3.41,5,3.39,5.32,0l3.62-37.8,2-20.85A23,23,0,0,0,95.23,42c-.12-2.42-.93-4.08-.32-6.53a14.86,14.86,0,0,1,2.54-4.87c1.49-2.22,2.93-4.52,3-7.27.06-3.6-3.45-9.08-7.75-7.87-2,.57-3.18,3.07-4.19,4.68-2.38,3.77-5.69,6-9.21,8.56C71.79,34.21,68.55,44.24,63.94,52.1,56.37,65,41.61,87.27,54.2,101.49c3.24,3.66,7.81,5.24,11.7,8A50.91,50.91,0,0,0,85.64,118c4.16.83,14,3.69,15.5-2.34,1.86-7.39-9.66-8.34-12.19-13C87.32,99.56,82.72,102.24,84.35,105.26Z"/><path class="cls-2" d="M111.63,68c0,23.43-18.5,42.39-41.23,42.35S29.29,91.31,29.33,67.87,46.67,38.51,69.39,38.55,111.67,44.59,111.63,68Z"/><path class="cls-2" d="M109,68c-.29,16.25-9.85,31.58-25.39,37.33A38.15,38.15,0,0,1,41,93.57c-8.88-10.88-13.79-31-3.7-42.75,8.95-10.39,26.46-10.19,38.91-9.4,7.81.5,16.19,1.85,22.86,6.24,7.06,4.65,9.75,12.18,9.87,20.36.05,3.42,5.38,3.43,5.32,0-.13-8.19-2.42-16.25-8.61-21.95-5.73-5.26-13.39-7.81-20.94-9C69.6,34.58,48.56,34,36.08,44.6c-13.3,11.25-11.1,33.19-3,46.81a43.85,43.85,0,0,0,45.52,20.85c21.08-3.95,35.34-23.31,35.71-44.23C114.35,64.6,109,64.6,109,68Z"/><ellipse class="cls-3" cx="36.19" cy="57.34" rx="13.72" ry="14.14"/><ellipse class="cls-3" cx="104.77" cy="57.74" rx="13.72" ry="14.14"/><ellipse cx="36.38" cy="50.62" rx="5.14" ry="5.3"/><ellipse cx="105.34" cy="50.62" rx="5.14" ry="5.3"/><path class="cls-1" d="M25.17,78.64S-5.44,88.35,6.33,98.06,29.88,93.21,25.17,78.64Z"/><path class="cls-1" d="M24.46,76.08a75.51,75.51,0,0,0-13,5.49C7,84,.61,88,1,93.93c.52,7.72,11.47,11.55,17.73,9,9.55-3.89,11.59-16.14,9-25-1-3.28-6.1-1.88-5.13,1.42,1.85,6.33.93,17.76-7.41,19.09-3.85.62-11.32-3.07-7.71-7.44,4.21-5.08,12.27-7.84,18.39-9.8C29.12,80.17,27.74,75,24.46,76.08Z"/><path class="cls-1" d="M115.62,78.64s30.61,9.71,18.84,19.42S110.91,93.21,115.62,78.64Z"/><path class="cls-1" d="M114.91,81.21c6.12,2,14.18,4.72,18.39,9.8,3.47,4.19-3.39,7.85-7.2,7.52-8.75-.75-9.77-12.84-7.92-19.18,1-3.29-4.17-4.7-5.13-1.42-2.59,8.85-.55,21.1,9,25,6.26,2.55,17.21-1.27,17.73-9,.4-5.92-6-9.92-10.48-12.36a75.43,75.43,0,0,0-13-5.49C113.06,75,111.66,80.17,114.91,81.21Z"/><ellipse class="cls-3" cx="70.48" cy="64.55" rx="9.69" ry="9.99"/><path class="cls-1" d="M76.18,64.55c-.4,7.64-11.39,7.7-11.39,0s11-7.64,11.39,0c.27,5.11,8.25,5.14,8,0-.39-7.45-5.83-14-13.68-14-7.58,0-13.65,6.52-13.68,14A14,14,0,0,0,70,78.5c8.06.34,13.81-6.31,14.21-14C84.43,59.41,76.45,59.42,76.18,64.55Z"/><circle class="cls-1" cx="62.72" cy="96.25" r="5.1" transform="translate(-52.15 97.97) rotate(-57.77)"/><circle class="cls-1" cx="50.79" cy="96.33" r="2.66" transform="matrix(0.53, -0.84, 0.84, 0.53, -57.77, 87.71)"/><circle class="cls-1" cx="57.98" cy="104.04" r="2.66" transform="translate(-60.94 97.37) rotate(-57.66)"/></svg>