<svg id="Calque_1" data-name="Calque 1" xmlns="http://www.w3.org/2000/svg" viewBox="0 0 141 134"><defs><style>.cls-1{fill:#347857;}.cls-2{fill:#68efad;stroke:#68efad;stroke-miterlimit:10;stroke-width:0.44px;}.cls-3{fill:#fff;}</style></defs><title>P_04</title><path class="cls-1" d="M47.76,114.44c-.83,3-4,5-6.81,6.93s-5.48,4.76-4.74,7.76a2,2,0,0,0,.76,1.23,3.53,3.53,0,0,0,2.16.36c11-.57,21.57-5.37,28.21-12.81L69.72,116c28.15-16.06-3.28-64.52-9.4-85.3a23.25,23.25,0,0,0-5.92-10.18c-3-2.92-6.34-5.62-8.47-9-1.6-2.55-2.44-5.4-4-8a1.09,1.09,0,0,0-.51-.5,1.29,1.29,0,0,0-1.09.25c-3.43,2.2-3.77,6.55-2.58,10.06S41.29,20,42.29,23.57s.58,7.08-.16,10.58Z"/><path class="cls-1" d="M45.2,113.73c-2.33,5.76-14,7.93-11.55,16.1,1.94,6.35,12.37,2.91,16.65,1.6,7.57-2.31,13.17-6.44,18.93-11.65,3.52-3.18,7.51-5.1,10.26-9.18,5.9-8.74,4.94-20.14,2.65-29.9C79.36,68.77,74.25,57.49,69.36,46.3c-2.14-4.89-4.34-9.77-6-14.84C61,24.38,57.6,20,52.29,14.85c-3.45-3.36-5-6.94-7.22-11.09-1.08-2-2.38-3.89-5-3.29-5.62,1.31-6.34,9.19-5,13.58,1.27,4,4.11,7.39,4.8,11.63.49,3-.39,5.74-.47,8.67,0,1.68.24,3.44.36,5.12l1.75,25,3.51,50c.24,3.4,5.56,3.42,5.32,0L45,36.73a18,18,0,0,1,.18-4.52,22.28,22.28,0,0,0-.3-9.35c-1-3.63-3.47-6.66-4.57-10.23A7.28,7.28,0,0,1,40.56,7c1.36-3,.34-.11-.09-.51A9.48,9.48,0,0,1,41.6,8.87a30.7,30.7,0,0,0,5.82,8.65c2.52,2.6,5.53,4.82,7.56,7.86,1.69,2.55,2.51,5.41,3.48,8.27,6.52,19.11,18.62,37.12,20,57.71.35,5.09-.07,10.42-2.6,15s-6.58,6.3-10.18,9.51c-6.48,5.78-12.8,10.08-21.58,11.64-1.55.28-5.4,1.65-4.94-.69.4-2,3.93-3.65,5.51-4.83a15.35,15.35,0,0,0,5.62-6.8C51.62,112,46.47,110.59,45.2,113.73Z"/><path class="cls-2" d="M109.91,76.05c0,21.68-17.58,51.25-39.26,51.25S31.4,97.73,31.4,76.05,49,12.8,70.65,12.8,109.91,54.37,109.91,76.05Z"/><circle class="cls-3" cx="37.94" cy="68.42" r="13.09"/><circle class="cls-3" cx="103.37" cy="68.78" r="13.09"/><circle cx="40.53" cy="66.78" r="4.91"/><circle cx="101.3" cy="66.78" r="4.91"/><path class="cls-1" d="M29.5,85.94S.45,99.52,11.62,113.09,34,106.3,29.5,85.94Z"/><path class="cls-1" d="M28.16,83.64C18.85,88,2.49,98.37,7.22,110.8c2.78,7.32,11.69,12.49,18.31,6.67,8.55-7.51,8.54-22.09,6.53-32.24-.66-3.36-5.8-1.94-5.13,1.42,1.57,7.94,2,20.13-4.42,26.36-5.54,5.41-12.44-3.74-10.12-9.44,2.91-7.15,11.77-12.18,18.46-15.33C33.94,86.78,31.24,82.19,28.16,83.64Z"/><path class="cls-1" d="M111.62,85.94s29.2,13.57,18,27.15S107.13,106.3,111.62,85.94Z"/><path class="cls-1" d="M110.28,88.24c6.71,3.15,15.63,8.17,18.56,15.33,2.22,5.44-4.21,14.6-9.83,9.81-6.89-5.87-6.38-18.86-4.81-26.73.67-3.35-4.46-4.78-5.13-1.42-2,10.1-2,24.22,6.18,31.91,6.62,6.23,15.87,1.23,18.77-6.35,4.76-12.46-11.72-22.78-21-27.16C109.88,82.2,107.18,86.78,110.28,88.24Z"/><circle class="cls-1" cx="76.16" cy="24.95" r="5.1"/><circle class="cls-1" cx="82.59" cy="34.93" r="2.66"/><circle class="cls-1" cx="37.79" cy="88.6" r="2.66"/><circle class="cls-1" cx="45.77" cy="84.16" r="2.66"/><circle class="cls-1" cx="45.77" cy="91.26" r="2.66"/><ellipse class="cls-3" cx="70.48" cy="80.66" rx="12.52" ry="12.91"/><path class="cls-1" d="M79,80.66c-.59,11.37-17.06,11.46-17.06,0s16.47-11.37,17.06,0c.27,5.11,8.25,5.14,8,0-.47-9-7-16.91-16.52-16.91C61.34,63.76,54,71.65,54,80.66c0,8.78,7,16.5,15.83,16.87,9.76.4,16.71-7.59,17.2-16.87C87.26,75.53,79.28,75.54,79,80.66Z"/><circle class="cls-1" cx="85.69" cy="26.06" r="2.66"/></svg>