<svg xmlns="http://www.w3.org/2000/svg" width="170" height="170" viewBox="0 0 170 170">
  <g fill="#FFF" fill-rule="evenodd">
    <path fill-opacity=".3" d="M84.8483,169.3605 C38.148,169.3605 0.2901,131.5025 0.2901,84.8022 C0.2901,38.1019 38.148,0.2439 84.8483,0.2439 C131.5487,0.2439 169.4066,38.1019 169.4066,84.8022 C169.4066,131.5025 131.5487,169.3605 84.8483,169.3605"/>
    <path fill-opacity=".5" d="M116.649,102.9908 C116.496,103.3816 116.3377,103.7701 116.1741,104.1569 C116.6381,103.0575 117.1016,101.9585 117.5656,100.8591 C115.9833,104.52 113.9722,107.9336 111.5681,111.1144 C112.2873,110.1829 113.0069,109.2519 113.7266,108.3204 C111.0225,111.8055 107.9181,114.9065 104.4532,117.6346 C105.3846,116.915 106.3161,116.1953 107.2471,115.4757 C103.5761,118.2968 99.6038,120.6334 95.3534,122.4691 C96.4524,122.0047 97.5518,121.5412 98.6508,121.0772 C94.3891,122.8572 89.9616,124.0882 85.3845,124.7166 C86.608,124.5522 87.8311,124.3877 89.0547,124.2233 C85.513,124.6627 81.9674,124.7311 78.4135,124.4018 C75.0845,124.093 70.9328,126.1638 68.6515,128.4451 C66.2571,130.8396 64.4542,134.768 64.6086,138.2071 C64.7682,141.7772 65.9413,145.4807 68.6515,147.969 C71.4889,150.5735 74.5815,151.6571 78.4135,152.0123 C91.5307,153.2289 105.3952,149.4592 116.5389,142.5491 C122.1128,139.0929 127.4214,134.8079 131.677,129.7949 C136.7772,123.786 140.3601,117.6263 143.2733,110.3307 C144.5166,107.2188 143.4996,102.4576 141.8818,99.693 C140.2062,96.8293 136.9224,94.0981 133.6315,93.3486 C130.0973,92.5439 126.1303,92.718 122.9934,94.7406 C119.7868,96.8074 118.0563,99.4676 116.649,102.9908"/>
  </g>
</svg>
