<svg xmlns="http://www.w3.org/2000/svg" width="12" height="14" viewBox="0 0 12 14">
  <path fill="#3d2563" fill-rule="evenodd" d="M10.3486328,13.6972656 L1.94726562,13.6972656 C1.66015481,13.6972656 1.41406353,13.5947276 1.20898438,13.3896484 C1.00390522,13.1845693 0.901367188,12.938478 0.901367188,12.6513672 L0.901367188,5.65136719 C0.901367188,5.35969906 1.00390522,5.11132915 1.20898438,4.90625 C1.41406353,4.70117085 1.66015481,4.59863281 1.94726562,4.59863281 L4.75,4.59863281 C4.8457036,4.59863281 4.92773403,4.63281216 4.99609375,4.70117188 C5.06445347,4.76953159 5.09863281,4.85156202 5.09863281,4.94726562 C5.09863281,5.04752654 5.06445347,5.1318356 4.99609375,5.20019531 C4.92773403,5.26855503 4.8457036,5.30273438 4.75,5.30273438 L1.94726562,5.30273438 C1.85156202,5.30273438 1.76953159,5.33691372 1.70117188,5.40527344 C1.63281216,5.47363315 1.59863281,5.55566358 1.59863281,5.65136719 L1.59863281,12.6513672 C1.59863281,12.7470708 1.63281216,12.8291012 1.70117188,12.8974609 C1.76953159,12.9658207 1.85156202,13 1.94726562,13 L10.3486328,13 C10.4443364,13 10.5263668,12.9658207 10.5947266,12.8974609 C10.6630863,12.8291012 10.6972656,12.7470708 10.6972656,12.6513672 L10.6972656,5.65136719 C10.6972656,5.55566358 10.6630863,5.47363315 10.5947266,5.40527344 C10.5263668,5.33691372 10.4443364,5.30273438 10.3486328,5.30273438 L7.55273438,5.30273438 C7.45247346,5.30273438 7.3681644,5.26855503 7.29980469,5.20019531 C7.23144497,5.1318356 7.19726562,5.04752654 7.19726562,4.94726562 C7.19726562,4.85156202 7.23144497,4.76953159 7.29980469,4.70117188 C7.3681644,4.63281216 7.45247346,4.59863281 7.55273438,4.59863281 L10.3486328,4.59863281 C10.6403009,4.59863281 10.8886708,4.70117085 11.09375,4.90625 C11.2988292,5.11132915 11.4013672,5.35969906 11.4013672,5.65136719 L11.4013672,12.6513672 C11.4013672,12.938478 11.2988292,13.1845693 11.09375,13.3896484 C10.8886708,13.5947276 10.6403009,13.6972656 10.3486328,13.6972656 Z M8.49609375,2.25390625 C8.56445347,2.32226597 8.59863281,2.4042964 8.59863281,2.5 C8.59863281,2.5957036 8.56445347,2.67773403 8.49609375,2.74609375 C8.46419255,2.78255227 8.42659527,2.80875643 8.38330078,2.82470703 C8.34000629,2.84065763 8.29557314,2.84863281 8.25,2.84863281 C8.20442686,2.84863281 8.15999371,2.84065763 8.11669922,2.82470703 C8.07340473,2.80875643 8.03580745,2.78255227 8.00390625,2.74609375 L6.5,1.2421875 L6.5,9.15136719 C6.5,9.24707079 6.46582065,9.32910122 6.39746094,9.39746094 C6.32910122,9.46582065 6.24707079,9.5 6.15136719,9.5 C6.05566358,9.5 5.97363315,9.46582065 5.90527344,9.39746094 C5.83691372,9.32910122 5.80273438,9.24707079 5.80273438,9.15136719 L5.80273438,1.2421875 L4.29882812,2.74609375 C4.23046841,2.81445347 4.14729867,2.84863281 4.04931641,2.84863281 C3.95133415,2.84863281 3.8681644,2.81445347 3.79980469,2.74609375 C3.73144497,2.67773403 3.69726562,2.5957036 3.69726562,2.5 C3.69726562,2.4042964 3.73144497,2.32226597 3.79980469,2.25390625 L5.90527344,0.155273438 C5.97363315,0.0869137207 6.05566358,0.052734375 6.15136719,0.052734375 C6.24707079,0.052734375 6.32910122,0.0869137207 6.39746094,0.155273438 L8.49609375,2.25390625 Z"/>
</svg>
