<svg xmlns="http://www.w3.org/2000/svg" width="180" height="67" viewBox="0 0 180 67">
  <path fill="#FFF" fill-rule="evenodd" d="M24.095952,58.9635906 C24.7312896,58.3211937 25.5395682,58 26.5208119,58 C27.8338431,58 28.7938945,58.4306113 29.4009949,59.2918468 C29.736312,59.7754093 29.9163216,60.2607294 29.9410292,60.7478216 L28.3103374,60.7478216 C28.2044478,60.3736783 28.0685581,60.0913103 27.9026644,59.900709 C27.6061735,59.5618622 27.1667382,59.3924414 26.5843454,59.3924414 C25.9913636,59.3924414 25.5236915,59.6315719 25.1813151,60.1098399 C24.8389386,60.588108 24.667753,61.2649089 24.667753,62.140263 C24.667753,63.0156171 24.848645,63.6712405 25.2104345,64.1071527 C25.572224,64.5430649 26.0319545,64.7610178 26.5896398,64.7610178 C27.1614437,64.7610178 27.5973494,64.5739489 27.89737,64.1998056 C28.0632637,63.9986154 28.2009181,63.6968345 28.3103374,63.294454 L29.9251458,63.294454 C29.7839597,64.1451005 29.423058,64.8369023 28.84243,65.36988 C28.261802,65.9028577 27.5179386,66.1693425 26.6108176,66.1693425 C25.4883878,66.1693425 24.6059876,65.8093233 23.9635906,65.0892739 C23.3211937,64.3656949 23,63.3738771 23,62.1137908 C23,60.7513445 23.3653137,59.7012882 24.095952,58.9635906 Z M66.3380945,65.9522699 L66.3380945,58.1482447 L67.952903,58.1482447 L67.952903,61.1237279 L71.0025085,61.1237279 L71.0025085,58.1482447 L72.6226114,58.1482447 L72.6226114,65.9522699 L71.0025085,65.9522699 L71.0025085,62.4685192 L67.952903,62.4685192 L67.952903,65.9522699 L66.3380945,65.9522699 Z M111.492187,63.003259 L113.472313,63.003259 L112.498133,59.9324757 L111.492187,63.003259 Z M111.592781,58.1482447 L113.435251,58.1482447 L116.198956,65.9522699 L114.430609,65.9522699 L113.927636,64.3480504 L111.052747,64.3480504 L110.512713,65.9522699 L108.807899,65.9522699 L111.592781,58.1482447 Z M96.0159006,38.2590445 C95.9486298,37.7878551 95.9142046,37.3130047 95.9142046,36.8437709 C95.9142046,34.6205976 96.6712228,32.4715302 98.3366628,31.0635205 C99.8506992,29.8037223 100.986226,30.1742512 101.213332,31.9527898 C103.711492,28.4698184 106.361056,24.6163181 108.329303,21.4297698 C108.63211,18.761962 109.540532,17.0575291 111.281674,15.6495194 C112.492903,14.6120386 113.855536,14.0932982 114.991063,14.0932982 C117.035012,14.0932982 117.489223,15.7236252 115.142467,19.5030197 C115.066765,20.392289 114.991063,21.6520872 114.991063,22.6154622 C114.991063,27.8769722 115.975187,32.6938475 115.823783,36.6955593 C115.748081,38.5482037 115.369572,40.6231654 114.536852,42.2534924 C117.215423,40.4627916 119.161041,38.3961297 120.519679,35.5295642 C120.808224,32.6521754 121.888156,29.6555125 123.62107,26.7653856 C126.497739,21.8744045 131.266954,17.5021638 136.036169,17.1316349 C138.307223,16.9093176 140.351172,18.0209042 141.713805,19.725337 C142.31942,20.4663948 142.697929,20.8369236 143.000736,21.1333467 C144.439071,22.6154622 145.423194,24.0975777 145.423194,28.7662415 C149.132583,27.7287606 153.901798,22.6154622 157.30838,17.7244811 C158.292503,16.464683 159.352329,16.464683 160.185049,17.5762696 C160.866365,18.6878562 161.244874,20.0217601 161.244874,21.2074525 C161.244874,21.5779814 161.244874,22.0967218 161.169173,22.5413564 C164.348649,19.6512312 168.360845,17.1316349 170.6319,17.1316349 C172.675849,17.1316349 174.871202,19.725337 174.871202,22.5413564 C174.871202,23.35652 174.719798,24.3940008 174.189885,25.5055874 C173.432867,26.9135971 172.373042,28.914453 171.161813,30.7670974 C169.874882,32.7679533 168.058038,36.1027131 167.30102,37.6589344 C166.544002,39.2892614 166.165493,40.7713769 166.165493,41.9570693 C166.165493,43.4391848 166.695405,44.4025598 167.830933,44.4025598 C170.177689,44.4025598 174.416991,39.437473 177.217958,34.6205976 C177.823573,33.5831168 178.9591,33.5831168 179.564715,34.6205976 C180.018925,35.5098669 180.397435,37.2142997 179.186205,39.5856845 C177.142256,43.8097137 171.540322,47.5150024 166.771107,47.5150024 C161.774787,47.5150024 159.503733,44.995406 159.503733,41.1419058 C159.503733,39.8080018 159.80654,38.1776748 160.487856,36.2509247 C161.850489,32.545636 164.348649,28.6921357 166.089791,25.7279047 C166.695405,24.6904239 168.209442,21.6520872 167.982336,21.6520872 C167.30102,21.6520872 163.97014,23.5788373 159.730838,28.1733953 C155.870045,32.3233186 152.084954,39.8080018 149.132583,46.32931 C148.678372,47.292685 147.618547,48.0337428 146.407318,46.6998389 C145.423194,45.662358 144.81758,44.4025598 144.81758,42.698127 C144.81758,41.6606462 145.120387,40.2526365 145.6503,38.8446268 C146.331616,36.9178766 147.694249,33.7313284 149.283987,30.6929916 C147.694249,31.4340494 146.785827,31.4340494 144.893281,31.4340494 C142.925034,38.6964152 137.3231,47.2185793 129.752918,47.2185793 C127.330459,47.2185793 124.529492,46.32931 122.485543,43.5873963 C121.990586,42.887531 121.585521,42.1485554 121.27035,41.3775728 C118.246582,45.1849919 113.689901,47.251743 108.859216,47.4408966 C104.524432,47.582343 100.189649,46.508879 97.5657044,42.3524929 C94.5715484,45.5379285 90.3981135,47.2685741 85.9972663,47.4408966 C81.8919859,47.5748542 77.7867054,46.6191415 75.1346587,42.9870184 C72.2969618,45.7608984 68.2349154,47.5697965 64.8764588,47.5150024 C60.3343497,47.4408966 58.3661024,44.8471945 58.3661024,41.2160116 C58.3661024,38.3258864 59.1988224,35.7321843 61.5455788,30.6929916 C60.1829461,31.2858378 58.6689097,31.4340494 57.0034697,31.4340494 C55.4137315,37.5848286 50.6445169,44.9213003 44.8154768,46.7739446 C44.0584586,46.9962619 42.9986332,47.2185793 41.8631059,47.2185793 C39.4406477,47.2185793 36.6396804,46.32931 34.5957313,43.5873963 C33.1573967,41.6606462 32.5517821,39.437473 32.5517821,37.0660882 C32.5517821,33.7313284 33.6873094,30.1742512 35.7312585,26.7653856 C39.2135422,21.1333467 43.907055,17.0575291 48.903375,17.0575291 C51.0987278,17.0575291 52.5370623,17.7244811 53.9753969,19.7994428 C55.9436442,21.6520872 58.138997,23.8011546 57.6090842,28.6921357 C61.3941752,27.951078 65.2549679,23.5047315 68.7372516,18.6137504 C69.7213752,17.1316349 70.9326044,16.9834234 71.8410262,18.09501 C72.5980444,18.9101735 73.1279571,20.0958659 73.1279571,21.7261929 C73.1279571,23.1342026 72.8251498,24.7645297 71.916728,26.4689625 C71.0083062,27.8028664 70.1755862,29.8037223 69.1157607,31.7304725 C67.8288298,34.0277515 66.3904952,36.5473478 65.7091788,38.1776748 C64.9521607,39.9562134 64.5736516,41.5124347 64.5736516,42.698127 C64.5736516,43.8838194 64.8764588,44.6248772 65.633477,44.5507714 C67.7929422,44.4423644 70.8839113,41.9155334 73.2178613,38.6522005 C73.1085586,38.0531414 73.0522553,37.4438631 73.0522553,36.8437709 C73.0522553,34.6205976 73.8092735,32.4715302 75.4747135,31.0635205 C76.9887499,29.8037223 78.1242772,30.1742512 78.3513826,31.9527898 C80.8495426,28.4698184 83.4991063,24.6163181 85.4673536,21.4297698 C85.7701609,18.761962 86.6785827,17.0575291 88.4197245,15.6495194 C89.6309536,14.6120386 90.9935864,14.0932982 92.1291137,14.0932982 C94.1730628,14.0932982 94.6272737,15.7236252 92.2805173,19.5030197 C92.2048155,20.392289 92.1291137,21.6520872 92.1291137,22.6154622 C92.1291137,27.8769722 93.1132373,32.6938475 92.9618337,36.6955593 C92.8861318,38.5482037 92.5076228,40.6231654 91.6749027,42.2534924 C93.4193292,41.0872936 94.8528887,39.8040514 96.0159006,38.2590445 Z M157.239258,58.1482447 L157.239258,59.5300972 L154.904404,59.5300972 L154.904404,65.9522699 L153.263123,65.9522699 L153.263123,59.5300972 L150.91768,59.5300972 L150.91768,58.1482447 L157.239258,58.1482447 Z M126.270634,40.2526365 C126.270634,42.4017039 126.95195,43.5132906 128.011776,43.5132906 C129.980023,43.4391848 133.235201,40.7713769 135.884765,35.80629 C137.020292,33.7313284 137.928714,31.5822609 138.534329,30.0260396 C136.49038,28.7662415 134.522132,26.3207509 133.840816,24.2457893 C132.251078,25.8020105 130.737041,27.8769722 129.45011,29.9519339 C127.481863,33.2866937 126.270634,37.4366171 126.270634,40.2526365 Z M139.518452,27.6546549 C140.275471,25.9502221 140.578278,24.1716835 140.578278,23.2083084 C140.578278,22.0967218 139.972663,21.6520872 139.44275,21.6520872 C138.98854,21.6520872 138.307223,22.2449333 138.307223,23.4306257 C138.307223,24.7645297 138.685732,26.6912798 139.518452,27.6546549 Z M106.285354,43.9579252 C107.875092,43.9579252 108.556408,40.2526365 108.556408,35.4357612 C108.556408,33.0643764 108.480707,30.6929916 108.329303,28.6921357 C106.512459,31.5081551 104.392808,34.6947034 102.121754,37.8812517 C103.030176,41.3642231 104.619914,43.9579252 106.285354,43.9579252 Z M0,42.6240213 C0,41.5865404 0.151403638,40.2526365 0.529912733,38.9187326 C2.42245821,32.545636 9.23562191,19.2065966 15.7459783,9.1282113 C13.3235201,8.60947088 12.0365892,7.34967272 11.3552728,5.86755724 C10.8253601,4.75597062 11.1281674,4.08901865 12.7936074,3.9408071 C15.6702765,3.71848978 18.5469456,2.75511472 21.3479129,1.79173965 C24.0731784,0.828364586 26.7227421,0.161412618 29.5994112,0.0132010693 C33.7630113,-0.135010479 37.4724004,0.90247036 39.289244,6.31219188 C41.0303859,11.4995961 39.5920513,15.2048848 36.9424876,19.1324908 C33.1573967,24.9127412 25.1330039,30.9894147 15.6702765,32.2492129 C13.399222,32.545636 11.8094838,32.3974244 10.5982547,31.9527898 C8.55430554,35.80629 6.13184733,40.5490596 3.70938913,46.2552042 C3.10377458,47.5891081 2.49816003,47.5891081 1.43833456,46.5516273 C0.605614552,45.662358 0,44.4766656 0,42.6240213 Z M19.3039638,16.5387887 C18.6226475,17.6503753 17.8656293,18.9842793 13.5506256,26.3948567 C28.6152876,23.0600969 35.958364,12.2406538 34.5957313,7.27556695 C34.292924,6.31219188 33.1573967,5.79345146 32.1732731,5.79345146 C30.4321312,5.79345146 27.6311639,6.75682653 25.0573021,7.64609582 C23.846073,8.09073046 23.2404584,8.31304779 22.180633,8.60947088 C22.1049311,10.4621152 21.0451057,13.4263462 19.3039638,16.5387887 Z M78.199979,14.7602501 C78.199979,17.3539522 76.6859426,18.761962 74.9448008,18.761962 C72.9765535,18.761962 70.8569025,16.0200483 70.8569025,13.7968751 C70.8569025,11.870125 72.2952371,9.94337482 74.1120807,9.94337482 C75.4747135,9.94337482 76.9887499,10.9808557 77.6700662,12.6111827 C78.0485753,13.500452 78.199979,14.2415097 78.199979,14.7602501 Z M38.456524,40.400848 C38.456524,42.698127 39.2135422,43.5132906 40.2733677,43.5132906 C42.1659132,43.5132906 45.2696877,40.5490596 47.9949532,35.80629 C49.1304805,33.6572226 50.1146041,31.5822609 50.7202187,30.0260396 C48.6005678,28.7662415 46.6323205,26.3207509 45.9510041,24.2457893 C44.4369677,25.7279047 42.8472295,27.7287606 41.6360004,29.9519339 C39.5920513,33.509011 38.456524,37.5848286 38.456524,40.400848 Z M51.7800442,27.6546549 C52.5370623,25.9502221 52.8398696,24.1716835 52.8398696,23.2083084 C52.8398696,22.0967218 52.2342551,21.6520872 51.7043423,21.6520872 C51.2501314,21.6520872 50.5688151,22.2449333 50.5688151,23.4306257 C50.5688151,24.7645297 50.9473242,26.6912798 51.7800442,27.6546549 Z M83.4234045,43.9579252 C85.0131427,43.9579252 85.694459,40.2526365 85.694459,35.4357612 C85.694459,33.0643764 85.6187572,30.6929916 85.4673536,28.6921357 C83.6505099,31.5081551 81.530859,34.6947034 79.2598044,37.8812517 C80.1682263,41.3642231 81.7579645,43.9579252 83.4234045,43.9579252 Z"/>
</svg>
