<svg xmlns="http://www.w3.org/2000/svg" width="224" height="128" viewBox="0 0 224 128">
  <path fill="#FFF" fill-opacity=".3" fill-rule="evenodd" d="M156.445702,90.1150536 C151.486337,94.4584729 146.597792,97.6802528 142.264,100.224 C136.216,106.56 127,108.864 119.656,108.864 C109.482908,108.864 103.316371,104.235738 100.486564,98.4718746 C93.0181477,107.328124 84.462292,108.864 79.048,108.864 C70.408,108.864 63.64,103.68 63.64,91.584 C63.64,88.848 64.072,85.68 64.792,82.224 L74.584,36 L95.32,36 L84.952,84.96 C84.52,86.832 84.376,88.272 84.376,89.568 C84.376,93.6 86.248,94.896 90.28,94.896 C93.3303352,94.896 96.2532248,93.2816897 98.6333359,90.6529945 C98.6324449,90.5792732 98.632,90.5056062 98.632,90.432 C98.632,83.808 102.232,78.912 106.264,77.04 C114.328,62.784 119.512,48.528 123.976,34.416 L145.288,31.536 C147.016,68.832 148.456,74.448 148.456,83.952 C148.456,85.968 148.312,87.696 147.88,89.424 C151.699429,87.1606348 155.379892,84.6193387 158.102303,82.3461699 L173.512,10.08 L194.824,7.2 L187.048,43.344 C193.24,36.576 199.432,35.424 203.896,35.424 C213.112,35.424 219.88,40.176 219.88,51.696 C219.88,63.36 212.968,80.784 212.968,88.848 C212.968,92.448 214.408,94.896 218.728,94.896 C221.176,94.896 222.616,94.608 223.48,94.032 C222.184,104.4 215.272,108.864 207.64,108.864 C196.552,108.864 193.096,100.8 193.096,92.592 C193.096,82.8 199.576,65.088 199.576,55.872 C199.576,51.12 197.848,48.528 194.392,48.528 C189.64,48.528 185.752,53.568 183.592,60.048 L173.368,108 L152.632,108 L156.445702,90.1150536 Z M221.667293,119.85878 C221.943597,119.974596 222.177708,120.145009 222.369632,120.370023 C222.528466,120.555329 222.654207,120.760487 222.74686,120.985501 C222.839513,121.210515 222.885839,121.466962 222.885839,121.754848 C222.885839,122.102297 222.798151,122.443949 222.622772,122.779817 C222.447393,123.115684 222.157857,123.353103 221.754154,123.492083 C222.091676,123.627753 222.33075,123.820502 222.471384,124.070334 C222.612018,124.320166 222.682334,124.701527 222.682334,125.214427 L222.682334,125.705817 C222.682334,126.040029 222.69557,126.266695 222.722042,126.38582 C222.761751,126.574435 222.854402,126.713412 223,126.802756 L223,126.986407 L221.317364,126.986407 C221.271037,126.824264 221.237948,126.693559 221.218093,126.594288 C221.178385,126.389128 221.156876,126.179007 221.153567,125.96392 L221.14364,125.283917 C221.137022,124.817343 221.051816,124.506298 220.888019,124.350773 C220.724221,124.195249 220.417313,124.117487 219.967284,124.117487 L218.388882,124.117487 L218.388882,126.986407 L216.89486,126.986407 L216.89486,119.670166 L220.483491,119.670166 C220.996392,119.680093 221.390988,119.742964 221.667293,119.85878 Z M218.388882,120.940829 L218.388882,122.906387 L220.121154,122.906387 C220.465293,122.906387 220.723394,122.866679 220.895464,122.787262 C221.199895,122.648282 221.352109,122.373637 221.352109,121.963316 C221.352109,121.519905 221.204859,121.222097 220.910355,121.069881 C220.744903,120.983846 220.496729,120.940829 220.165825,120.940829 L218.388882,120.940829 Z M46.0551756,120.965647 L42.1836234,120.965647 L42.1836234,122.519231 L45.7375098,122.519231 L45.7375098,123.789895 L42.1836234,123.789895 L42.1836234,125.671072 L46.2338626,125.671072 L46.2338626,126.986407 L40.6896014,126.986407 L40.6896014,119.670166 L46.0551756,119.670166 L46.0551756,120.965647 Z M66.6843087,124.728001 C66.7306352,125.062214 66.8216323,125.312042 66.9573028,125.477494 C67.2054805,125.778616 67.6306851,125.929175 68.2329296,125.929175 C68.5936145,125.929175 68.8864597,125.889467 69.1114741,125.810051 C69.5383397,125.657835 69.7517693,125.374917 69.7517693,124.961287 C69.7517693,124.719728 69.6458817,124.53277 69.4341035,124.400409 C69.2223252,124.271356 68.8897721,124.157196 68.4364343,124.057925 L67.6621238,123.884202 C66.9010457,123.712132 66.3749169,123.525174 66.0837218,123.323323 C65.5906755,122.985801 65.3441561,122.458018 65.3441561,121.739957 C65.3441561,121.084768 65.582403,120.54044 66.0589042,120.106956 C66.5354053,119.673473 67.2352558,119.456734 68.1584767,119.456734 C68.9294819,119.456734 69.5871429,119.661064 70.1314792,120.06973 C70.6758156,120.478396 70.9612156,121.071532 70.9876879,121.849155 L69.5184835,121.849155 C69.4920112,121.409053 69.30009,121.096354 68.9427142,120.911048 C68.7044636,120.788614 68.4083094,120.727398 68.0542426,120.727398 C67.6604674,120.727398 67.3461137,120.806813 67.1111722,120.965647 C66.8762307,121.124481 66.7587617,121.346183 66.7587617,121.63076 C66.7587617,121.892174 66.8745762,122.087404 67.1062087,122.216456 C67.2551152,122.302491 67.5727779,122.403415 68.0592061,122.519231 L69.3199423,122.822007 C69.8725513,122.954368 70.2894835,123.131399 70.5707515,123.353104 C71.0075442,123.697244 71.2259372,124.195246 71.2259372,124.847126 C71.2259372,125.515551 70.9703181,126.070634 70.4590721,126.51239 C69.9478261,126.954146 69.2256399,127.175021 68.2924919,127.175021 C67.3394897,127.175021 66.5900044,126.957455 66.0440136,126.522317 C65.4980227,126.087179 65.2250314,125.48908 65.2250314,124.728001 L66.6843087,124.728001 Z M91.616821,124.728001 C91.6631475,125.062214 91.7541446,125.312042 91.8898151,125.477494 C92.1379928,125.778616 92.5631974,125.929175 93.1654419,125.929175 C93.5261268,125.929175 93.818972,125.889467 94.0439864,125.810051 C94.470852,125.657835 94.6842816,125.374917 94.6842816,124.961287 C94.6842816,124.719728 94.578394,124.53277 94.3666158,124.400409 C94.1548375,124.271356 93.8222844,124.157196 93.3689466,124.057925 L92.5946361,123.884202 C91.833558,123.712132 91.3074292,123.525174 91.0162341,123.323323 C90.5231878,122.985801 90.2766684,122.458018 90.2766684,121.739957 C90.2766684,121.084768 90.5149153,120.54044 90.9914165,120.106956 C91.4679176,119.673473 92.1677681,119.456734 93.090989,119.456734 C93.8619942,119.456734 94.5196552,119.661064 95.0639915,120.06973 C95.6083279,120.478396 95.8937279,121.071532 95.9202002,121.849155 L94.4509958,121.849155 C94.4245235,121.409053 94.2326023,121.096354 93.8752265,120.911048 C93.6369759,120.788614 93.3408217,120.727398 92.9867549,120.727398 C92.5929797,120.727398 92.278626,120.806813 92.0436845,120.965647 C91.808743,121.124481 91.691274,121.346183 91.691274,121.63076 C91.691274,121.892174 91.8070885,122.087404 92.0387209,122.216456 C92.1876275,122.302491 92.5052902,122.403415 92.9917184,122.519231 L94.2524546,122.822007 C94.8050635,122.954368 95.2219958,123.131399 95.5032638,123.353104 C95.9400565,123.697244 96.1584495,124.195246 96.1584495,124.847126 C96.1584495,125.515551 95.9028304,126.070634 95.3915844,126.51239 C94.8803384,126.954146 94.1581522,127.175021 93.2250042,127.175021 C92.272002,127.175021 91.5225167,126.957455 90.9765259,126.522317 C90.430535,126.087179 90.1575437,125.48908 90.1575437,124.728001 L91.616821,124.728001 Z M120.852712,120.965647 L116.98116,120.965647 L116.98116,122.519231 L120.535047,122.519231 L120.535047,123.789895 L116.98116,123.789895 L116.98116,125.671072 L121.031399,125.671072 L121.031399,126.986407 L115.487138,126.986407 L115.487138,119.670166 L120.852712,119.670166 L120.852712,120.965647 Z M140.350161,119.670166 L141.953381,119.670166 L144.866972,124.777637 L144.866972,119.670166 L146.291505,119.670166 L146.291505,126.986407 L144.762738,126.986407 L141.774694,121.789593 L141.774694,126.986407 L140.350161,126.986407 L140.350161,119.670166 Z M170.787226,121.953389 C170.67141,121.453725 170.388492,121.104627 169.938463,120.906085 C169.686976,120.796886 169.407367,120.742288 169.099627,120.742288 C168.510618,120.742288 168.026679,120.964817 167.647795,121.409883 C167.26891,121.854948 167.079471,122.52419 167.079471,123.41763 C167.079471,124.317688 167.284628,124.954667 167.694948,125.328588 C168.105269,125.702509 168.571836,125.889467 169.094663,125.889467 C169.607564,125.889467 170.027805,125.74139 170.355399,125.445231 C170.682994,125.149073 170.884842,124.761094 170.96095,124.281284 L169.268387,124.281284 L169.268387,123.060256 L172.315993,123.060256 L172.315993,126.986407 L171.303433,126.986407 L171.149564,126.073118 C170.85506,126.420566 170.590341,126.665431 170.355399,126.80772 C169.951697,127.055898 169.455349,127.179984 168.866341,127.179984 C167.896794,127.179984 167.102637,126.844122 166.483847,126.172388 C165.838585,125.497345 165.515959,124.574138 165.515959,123.402739 C165.515959,122.218105 165.841894,121.268426 166.493774,120.553674 C167.145654,119.838922 168.007645,119.481552 169.079773,119.481552 C170.009612,119.481552 170.756615,119.717317 171.320806,120.188855 C171.884996,120.660392 172.20845,121.248565 172.291176,121.953389 L170.787226,121.953389 Z M197.337849,120.965647 L193.466297,120.965647 L193.466297,122.519231 L197.020183,122.519231 L197.020183,123.789895 L193.466297,123.789895 L193.466297,125.671072 L197.516536,125.671072 L197.516536,126.986407 L191.972275,126.986407 L191.972275,119.670166 L197.337849,119.670166 L197.337849,120.965647 Z M18.8741849,119.670166 L21.073028,119.670166 L21.073028,126.986407 L19.6484953,126.986407 L19.6484953,122.037769 C19.6484953,121.895481 19.6501498,121.696114 19.6534589,121.439664 C19.6567679,121.183214 19.6584224,120.985502 19.6584224,120.846522 L18.273598,126.986407 L16.789503,126.986407 L15.4146056,120.846522 C15.4146056,120.985502 15.4162601,121.183214 15.4195691,121.439664 C15.4228782,121.696114 15.4245327,121.895481 15.4245327,122.037769 L15.4245327,126.986407 L14,126.986407 L14,119.670166 L16.2236607,119.670166 L17.5538863,125.422895 L18.8741849,119.670166 Z M48.952,43.2 L67.096,43.2 L64.792,53.856 L46.648,53.856 L34.984,108 L14.248,108 L34.984,11.808 L33.4,11.808 C21.736,11.808 13.384,17.712 13.384,41.616 C13.384,48.96 15.256,50.112 15.4,51.408 C5.464,51.408 -0.008,47.808 -0.008,37.44 C-0.008,18.288 13.528,0 49.096,0 C58.888,0 69.4,2.88 82.36,2.88 C88.552,2.88 95.464,2.16 103.24,0.144 C101.224,10.368 96.904,22.464 85.384,22.464 C73.576,22.464 67.096,17.568 55.144,14.4 L48.952,43.2 Z M116.488,82.224 C116.488,85.68 113.896,89.28 110.152,89.28 C108.712,89.28 106.984,88.848 106.264,87.408 C106.264,94.176 108.712,97.488 115.048,97.488 C121.384,97.488 127.576,94.176 127.576,84.096 C127.576,76.608 126.28,72.144 124.84,49.968 C121.96,59.328 117.928,67.968 113.176,77.184 C115.048,78.048 116.488,79.776 116.488,82.224 Z"/>
</svg>
