<svg xmlns="http://www.w3.org/2000/svg" width="45" height="55" viewBox="0 0 45 55">
  <path fill="#FFF" fill-rule="evenodd" d="M44.3854862,42.8961723 C44.6569221,43.0900551 44.836261,43.3372519 44.9235083,43.6377703 C45.0107556,43.9382886 45.0059086,44.2436495 44.9089672,44.553862 C44.8120258,44.8640744 44.6326869,45.1112713 44.3709451,45.29546 C44.1092033,45.4796486 43.8232304,45.5717416 43.513018,45.5717416 L29.9606778,45.5717416 C29.9994544,45.8044009 30.0333834,46.0467508 30.0624658,46.2987985 C30.0915482,46.5508461 30.1060892,46.80289 30.1060892,47.0549376 C30.1060892,48.0825165 29.9122093,49.0470689 29.5244437,49.948624 C29.1366781,50.850179 28.6035084,51.6402396 27.9249186,52.3188294 C27.2463288,52.9974192 26.4562682,53.5305889 25.5547132,53.9183545 C24.6531581,54.3061201 23.6886056,54.5 22.6610268,54.5 C21.6334479,54.5 20.6688955,54.3061201 19.7673404,53.9183545 C18.8657854,53.5305889 18.0757248,52.9974192 17.397135,52.3188294 C16.7185452,51.6402396 16.1853755,50.850179 15.7976099,49.948624 C15.4098443,49.0470689 15.2159644,48.0825165 15.2159644,47.0549376 C15.2159644,46.80289 15.2256584,46.5508461 15.2450467,46.2987985 C15.2644349,46.0467508 15.3032109,45.8044009 15.3613758,45.5717416 L1.80903562,45.5717416 C1.47943485,45.5717416 1.18861501,45.4796486 0.936567369,45.29546 C0.684519726,45.1112713 0.500333826,44.8640744 0.384004144,44.553862 C0.287062743,44.2436495 0.287062743,43.9382886 0.384004144,43.6377703 C0.480945546,43.3372519 0.655437451,43.0900551 0.907485094,42.8961723 C1.76056943,42.256359 2.52154801,41.5341564 3.19044368,40.7295428 C3.85933935,39.9249292 4.42159104,39.0670106 4.87721563,38.1557615 C5.33284022,37.2445123 5.68182403,36.2848068 5.92417753,35.2766162 C6.16653103,34.2684257 6.28770597,33.2311682 6.28770597,32.1648128 L6.28770597,23.2365544 C6.28770597,21.3558912 6.58337281,19.5721962 7.17471536,17.8854158 C7.7660579,16.1986354 8.59489445,14.6621372 9.66124987,13.2758752 C10.7276053,11.8896132 11.9878246,10.6972518 13.4419456,9.69875537 C14.8960666,8.70025894 16.4761878,7.95866834 18.1823564,7.47396134 L18.1823564,5.35095526 C18.1823564,4.1294936 18.6185862,3.08254217 19.4910588,2.21006956 C20.3635314,1.33759695 21.4201769,0.901367188 22.6610268,0.901367188 C23.8824884,0.901367188 24.9294399,1.33759695 25.8019125,2.21006956 C26.6743851,3.08254217 27.1106149,4.1294936 27.1106149,5.35095526 L27.1106149,7.47396134 C28.8361718,7.95866834 30.4259869,8.70025894 31.880108,9.69875537 C33.334229,10.6972518 34.5896013,11.8896132 35.6462626,13.2758752 C36.7029238,14.6621372 37.5317604,16.1986354 38.1327971,17.8854158 C38.7338338,19.5721962 39.0343476,21.3558912 39.0343476,23.2365544 L39.0343476,32.1648128 C39.0343476,33.2311682 39.1555225,34.2684257 39.397876,35.2766162 C39.6402296,36.2848068 39.9892134,37.2445123 40.4448379,38.1557615 C40.9004625,39.0670106 41.4578672,39.9249292 42.1170688,40.7295428 C42.7762703,41.5341564 43.5324019,42.256359 44.3854862,42.8961723 Z M21.1778308,5.35095526 L21.1778308,6.92139811 C21.4104901,6.90200983 21.65284,6.88746884 21.9048876,6.8777747 C22.1569353,6.86808056 22.4089791,6.86323356 22.6610268,6.86323356 C22.9130744,6.86323356 23.1602713,6.86808056 23.4026248,6.8777747 C23.6449783,6.88746884 23.8921752,6.90200983 24.1442228,6.92139811 L24.1442228,5.35095526 C24.1442228,4.94380138 23.9988129,4.59481757 23.7079887,4.30399336 C23.4171645,4.01316916 23.0681807,3.86775924 22.6610268,3.86775924 C22.2538729,3.86775924 21.9048891,4.01316916 21.6140649,4.30399336 C21.3232407,4.59481757 21.1778308,4.94380138 21.1778308,5.35095526 Z M27.1106149,47.0549376 C27.1106149,46.80289 27.0912269,46.5508461 27.0524503,46.2987985 C27.0136738,46.0467508 26.9555098,45.8044009 26.8779567,45.5717416 L18.4440969,45.5717416 C18.3665438,45.8044009 18.3035328,46.0467508 18.2550621,46.2987985 C18.2065914,46.5508461 18.1823564,46.80289 18.1823564,47.0549376 C18.1823564,48.2957875 18.6185862,49.352433 19.4910588,50.2249056 C20.3635314,51.0973782 21.4201769,51.533608 22.6610268,51.533608 C23.8824884,51.533608 24.9294399,51.0973782 25.8019125,50.2249056 C26.6743851,49.352433 27.1106149,48.2957875 27.1106149,47.0549376 Z M5.50248454,42.5762673 L39.7904868,42.5762673 C39.4221094,42.1303368 39.0731256,41.6553311 38.7435249,41.1512358 C38.4139241,40.6471405 38.1134103,40.1333588 37.8419743,39.6098752 C37.2409376,38.4465784 36.7950139,37.244523 36.5041897,36.0036731 C36.2133655,34.7628232 36.0679556,33.4832159 36.0679556,32.1648128 L36.0679556,23.2365544 C36.0679556,21.3946678 35.7141248,19.6594427 35.0064525,18.0308272 C34.2987803,16.4022116 33.3390748,14.9820414 32.1273073,13.7702739 C30.9155398,12.5585064 29.4953696,11.5988009 27.866754,10.8911286 C26.2381385,10.1834564 24.5029134,9.82962561 22.6610268,9.82962561 C20.8191402,9.82962561 19.0839151,10.1834564 17.4552996,10.8911286 C15.826684,11.5988009 14.4065138,12.5585064 13.1947463,13.7702739 C11.9829788,14.9820414 11.0232733,16.4022116 10.3156011,18.0308272 C9.60792882,19.6594427 9.25409802,21.3946678 9.25409802,23.2365544 L9.25409802,32.1648128 C9.25409802,33.4832159 9.1038411,34.7628232 8.80332275,36.0036731 C8.50280441,37.244523 8.06172765,38.4465784 7.48007924,39.6098752 C7.20864332,40.1333588 6.90812948,40.6471405 6.57852872,41.1512358 C6.24892795,41.6553311 5.89025015,42.1303368 5.50248454,42.5762673 Z"/>
</svg>
