<svg xmlns="http://www.w3.org/2000/svg" width="265" height="214" viewBox="0 0 265 214">
  <path fill="#FFF" fill-rule="evenodd" d="M179.5582,213.1166 C132.8579,213.1166 95,175.2586 95,128.5583 C95,81.858 132.8579,44 179.5582,44 C226.2586,44 264.1165,81.858 264.1165,128.5583 C264.1165,175.2586 226.2586,213.1166 179.5582,213.1166 Z M211.3589,146.7469 C211.2059,147.1377 211.0476,147.5262 210.884,147.913 C211.348,146.8136 211.8115,145.7146 212.2755,144.6152 C210.6932,148.2761 208.6821,151.6897 206.278,154.8705 C206.9972,153.939 207.7168,153.008 208.4365,152.0765 C205.7324,155.5616 202.628,158.6626 199.1631,161.3907 C200.0945,160.6711 201.026,159.9514 201.957,159.2318 C198.286,162.0529 194.3137,164.3895 190.0633,166.2252 C191.1623,165.7608 192.2617,165.2973 193.3607,164.8333 C189.099,166.6133 184.6715,167.8443 180.0944,168.4727 C181.3179,168.3083 182.541,168.1438 183.7646,167.9794 C180.2229,168.4188 176.6773,168.4872 173.1234,168.1579 C169.7944,167.8491 165.6427,169.9199 163.3614,172.2012 C160.967,174.5957 159.1641,178.5241 159.3185,181.9632 C159.4781,185.5333 160.6512,189.2368 163.3614,191.7251 C166.1988,194.3296 169.2914,195.4132 173.1234,195.7684 C186.2406,196.985 200.1051,193.2153 211.2488,186.3052 C216.8227,182.849 222.1313,178.564 226.3869,173.551 C231.4871,167.5421 235.07,161.3824 237.9832,154.0868 C239.2265,150.9749 238.2095,146.2137 236.5917,143.4491 C234.9161,140.5854 231.6323,137.8542 228.3414,137.1047 C224.8072,136.3 220.8402,136.4741 217.7033,138.4967 C214.4967,140.5635 212.7662,143.2237 211.3589,146.7469 Z M153.861698,40.1667467 L153.861698,40.1667467 C115.541707,51.2876234 87.53125,86.6518232 87.53125,128.5583 C87.53125,141.470657 90.1905597,153.76189 94.9913709,164.914189 C91.0337259,165.494435 86.9851722,165.794922 82.8664361,165.794922 C37.1005672,165.794922 0,128.694355 0,82.9284858 C0,37.1626168 37.1005672,0.0620496399 82.8664361,0.0620496399 C112.987062,0.0620496399 139.354258,16.1323909 153.861698,40.1667467 Z M125.97837,53.7286657 C116.614207,39.9299162 100.799073,30.8638075 82.8664361,30.8638075 C54.1119083,30.8638075 30.8017578,54.1739579 30.8017578,82.9284858 C30.8017578,111.683014 54.1119083,134.993164 82.8664361,134.993164 C84.5089887,134.993164 86.1337759,134.917101 87.7374677,134.768306 C87.600718,132.715987 87.53125,130.645256 87.53125,128.5583 C87.53125,97.7218381 102.697806,70.4277607 125.97837,53.7286657 L125.97837,53.7286657 Z"/>
</svg>
